<svg width="313" height="140" xmlns="http://www.w3.org/2000/svg"><g fill="none" fill-rule="evenodd"><path d="M101.998 63.794c-1.715-1.483-3.609-3.918-3.708-7.477-.238-8.569 9.466-13.58 16.15-9.26 1.819 1.175 2.796 2.161 3.365 2.938.52-.47 2.155-1.799 4.07-1.799h2.783s-1.05-2.92.136-6.614c1.187-3.695 5.11-6.067 7.39-6.478 2.282-.41 3.97-.091 3.97-.091s-.365-3.65 2.326-8.212c4.38-7.423 13.321-6.877 20.62-6.021 0 0 1.23-4.067 7.526-7.39 6.295-3.324 15.145-1.825 17.882-.822 2.738 1.004 4.471 2.464 4.471 2.464s.912-8.577 13.32-13.139c9.418-3.462 17.153 1.274 21.292 5.753 1.982-1.416 9.227-5.866 17.53-2.058 9.761 4.478 9.123 10.583 9.123 10.583s6.934-.09 12.408 4.471c5.474 4.562 3.467 16.605 3.467 16.605s5.018 0 7.663 3.74c2.482 3.51 2.877 10.79.733 15.746 2.613.574 5.407 1.854 7.022 4.6 3.008 5.113 3.165 9.11 3.127 12.401 1.78-.9 4.578-1.786 8.197-1.252 15.425 2.277 16.082 21.723 2.18 24.524-.563.114-1.146.206-1.744.28 1.695 2.474 3.968 7.597.466 14.41-1.441 2.803-4.29 4.824-7.72 6.259-4.104 8.174-15.365 19.12-35.07 21.2-15.483 1.636-23.212-.898-26.926-3.202-5.527.908-11.403 1.456-17.416 1.379-16.97-.22-26.382-6.415-31.2-11.337-4.24 2.32-9.19 4.05-14.782 4.403-19.19 1.21-22-6.914-22.243-7.772-5.744 4.263-17.347 8.026-41.806 2.48-31.385-7.117-28.136-21.37-28.136-21.37h.002c-2.97-5.73-3.391-12.414.034-17.314 6.569-9.397 15.805-7.396 15.805-7.396-.83-3.039-.877-6.634 1.348-10.03 5.2-7.937 16.344-5.202 16.344-5.202zm194.462-6.25c2.322 0 4.204 1.849 4.204 4.13 0 2.28-1.882 4.129-4.204 4.129-2.321 0-4.203-1.849-4.203-4.13 0-2.28 1.882-4.129 4.203-4.129zM275.88 9.006c2.847 0 5.155 2.268 5.155 5.064 0 2.797-2.308 5.064-5.155 5.064-2.847 0-5.155-2.267-5.155-5.064 0-2.796 2.308-5.064 5.155-5.064zM55.452 35.283c2.847 0 5.155 2.267 5.155 5.063 0 2.797-2.308 5.064-5.155 5.064-2.847 0-5.155-2.267-5.155-5.064 0-2.796 2.308-5.063 5.155-5.063zm60.444-3.878c2.847 0 5.155 2.268 5.155 5.064 0 2.797-2.308 5.064-5.155 5.064-2.846 0-5.154-2.267-5.154-5.064 0-2.796 2.308-5.064 5.154-5.064z" fill="#DCF7FB"/><path d="M122.596 45.166h17.124c1.553 0 2.824 1.214 2.824 2.698 0 .75-.325 1.43-.847 1.92H134.7c-2.166 0-3.94 2.12-3.94 4.709 0 2.59 1.774 4.708 3.94 4.708h93.984c2.167 0 3.94-2.118 3.94-4.708 0-2.59-1.773-4.708-3.94-4.708H207.63a2.627 2.627 0 0 1-.849-1.921c0-1.324 1.013-2.431 2.335-2.655a2.932 2.932 0 0 0-.49-.043h7.953c2.167 0 3.94-2.12 3.94-4.709 0-2.59-1.773-4.708-3.94-4.708h-93.984c-2.166 0-3.94 2.119-3.94 4.708 0 2.59 1.774 4.709 3.94 4.709" fill="#DCF7FB"/><path d="M3.94 10.938h17.123c1.553 0 2.824 1.215 2.824 2.699 0 .75-.325 1.43-.847 1.92h-6.996c-2.166 0-3.939 2.12-3.939 4.709 0 2.59 1.773 4.708 3.94 4.708h93.983c2.167 0 3.94-2.119 3.94-4.708 0-2.59-1.773-4.708-3.94-4.708H88.975a2.628 2.628 0 0 1-.85-1.921c0-1.325 1.013-2.431 2.335-2.655a2.93 2.93 0 0 0-.49-.044h7.954c2.166 0 3.939-2.118 3.939-4.708 0-2.59-1.773-4.708-3.94-4.708H3.94C1.773 1.522 0 3.64 0 6.23c0 2.59 1.773 4.708 3.94 4.708" fill="#E6F5FA"/><path d="M195.378 90.818H43.043c-.97 0-1.765-.95-1.765-2.11V3.445c0-1.16.794-2.11 1.765-2.11h152.335c.971 0 1.766.95 1.766 2.11v85.261c0 1.16-.795 2.11-1.766 2.11" fill="#4F77BC"/><path d="M190.023 84.38H48.399c-.971 0-1.766-.95-1.766-2.111V11.236c0-1.161.795-2.11 1.766-2.11h141.624c.971 0 1.766.949 1.766 2.11v71.033c0 1.16-.795 2.11-1.766 2.11" fill="#5D90D8"/><path d="M195.378 12.826H43.043c-.97 0-1.765-.95-1.765-2.11v-7.27c0-1.16.794-2.11 1.765-2.11h152.335c.971 0 1.766.95 1.766 2.11v7.27c0 1.16-.795 2.11-1.766 2.11" fill="#2D4970"/><path d="M46.633 12.826v68.981c0 1.415.968 2.572 2.152 2.572h140.852c1.183 0 2.152-1.157 2.152-2.572v-68.98H46.633z" fill="#F2F2F2"/><path fill="#FFF" d="M183.074 12.826V84.38H54.62V12.826z"/><path fill="#4F77BC" d="M183.118 12.826v5.162H54.577v-5.162z"/><path d="M172.554 15.417c0 .672-.572 1.217-1.278 1.217-.705 0-1.277-.545-1.277-1.217 0-.673.572-1.218 1.277-1.218.706 0 1.278.545 1.278 1.218" fill="#FF494B"/><path d="M175.404 14.2c-.706 0-1.278.544-1.278 1.217 0 .672.572 1.217 1.278 1.217.705 0 1.277-.545 1.277-1.217 0-.673-.572-1.218-1.277-1.218" fill="#3ABA77"/><path d="M179.531 14.2c-.705 0-1.277.544-1.277 1.217 0 .672.572 1.217 1.277 1.217.706 0 1.278-.545 1.278-1.217 0-.673-.572-1.218-1.278-1.218" fill="#F9CC4D"/><path d="M180.809 21.102h-4.522v-.758h4.522zm0 1.36h-4.522v-.758h4.522zm0 1.36h-4.522v-.758h4.522z" fill="#5D90D8"/><path d="M174.26 23.897H74.634c-.408 0-.74-.316-.74-.705V21.08c0-.389.332-.704.74-.704h99.626c.408 0 .739.315.739.704v2.113c0 .39-.331.705-.74.705" fill="#AFCDF2"/><path d="M71.042 22.18c0 .668-.614 1.272-1.368 1.272-.755 0-1.369-.617-1.369-1.336 0-.718.614-1.303 1.369-1.303.262 0 .514.074.73.205l-.369.352 1.406.359-.377-1.34-.325.31a1.904 1.904 0 0 0-1.065-.324c-1.013 0-1.836.792-1.836 1.757 0 .964.823 1.765 1.836 1.765 1.012 0 1.835-.827 1.835-1.717h-.467zm-15.112-.044l2.223 1.223v-.588h2.024V21.5h-2.024v-.589zm10.446-.001l-2.224-1.223v.589H62.13v1.27h2.023v.588zm114.382-.993h-4.579v-.767h4.58zm0 1.378h-4.579v-.768h4.58zm0 1.377h-4.579v-.768h4.58z" fill="#5D90D8"/><path d="M125.681 28.33H57.532c-.406 0-.739-.316-.739-.704v-.235c0-.387.333-.704.74-.704h68.148c.407 0 .74.317.74.704v.235c0 .388-.333.705-.74.705" fill="#1F3142"/><path d="M70.09 45.59a.549.549 0 0 1-.227-.05c-2.576-1.165-6.378-2.825-7.1-3.02-.509.224-3.338 1.668-4.898 2.946a.548.548 0 0 1-.761-.066.52.52 0 0 1 .067-.744c3.914-3.205 5.368-3.205 5.569-3.205.52 0 4.094 1.56 7.167 2.946l6.973-9.678a.55.55 0 0 1 .835-.058l6.771 7.037L91.3 33.2a.546.546 0 0 1 .544-.189l7.464 4.854c.29.071.465.358.393.64a.54.54 0 0 1-.656.385l-7.105-4.775-6.991 8.719a.545.545 0 0 1-.819.036l-6.748-7.013-6.85 9.509a.545.545 0 0 1-.443.223" fill="#FFDC3B"/><path d="M58.904 45.015c0 .604-.494 1.092-1.103 1.092a1.097 1.097 0 0 1-1.102-1.092c0-.603.493-1.092 1.102-1.092.61 0 1.103.49 1.103 1.092m5.4-3.057c0 .603-.494 1.092-1.103 1.092a1.097 1.097 0 0 1-1.102-1.092c0-.603.493-1.092 1.102-1.092.61 0 1.103.49 1.103 1.092m6.894 2.946c0 .603-.493 1.092-1.102 1.092a1.097 1.097 0 0 1-1.103-1.092c0-.603.494-1.092 1.103-1.092s1.102.49 1.102 1.092m7.182-9.571c0 .604-.493 1.093-1.102 1.093a1.097 1.097 0 0 1-1.102-1.093c0-.603.493-1.092 1.102-1.092.61 0 1.103.49 1.103 1.092m7.078 6.625c0 .603-.494 1.092-1.103 1.092a1.097 1.097 0 0 1-1.102-1.092c0-.603.494-1.092 1.102-1.092.61 0 1.103.49 1.103 1.092m7.305-8.227c0 .604-.493 1.093-1.102 1.093a1.097 1.097 0 0 1-1.103-1.093c0-.603.494-1.092 1.103-1.092.608 0 1.102.49 1.102 1.092m7.72 4.655c0 .603-.494 1.092-1.103 1.092a1.097 1.097 0 0 1-1.102-1.092c0-.603.493-1.092 1.102-1.092.609 0 1.103.489 1.103 1.092" fill="#FFDC3B"/><g fill="#FFDC3B"><path d="M123.645 37.865l-7.464-4.854a.546.546 0 0 0-.543.19l-6.814 8.497-6.771-7.037a.55.55 0 0 0-.835.058l-2.39 3.316.889.602 2.002-2.78 6.749 7.013a.55.55 0 0 0 .818-.036l6.991-8.719 7.106 4.775a.54.54 0 0 0 .655-.384.527.527 0 0 0-.393-.64"/><path d="M102.718 35.333c0 .604-.493 1.093-1.102 1.093a1.097 1.097 0 0 1-1.103-1.093c0-.603.494-1.092 1.103-1.092s1.102.49 1.102 1.092m7.079 6.625c0 .603-.494 1.092-1.103 1.092a1.097 1.097 0 0 1-1.102-1.092c0-.603.493-1.092 1.102-1.092.609 0 1.103.49 1.103 1.092m7.305-8.227c0 .604-.494 1.093-1.103 1.093a1.097 1.097 0 0 1-1.102-1.093c0-.603.493-1.092 1.102-1.092.609 0 1.103.49 1.103 1.092m7.719 4.655c0 .603-.493 1.092-1.102 1.092a1.097 1.097 0 0 1-1.103-1.092c0-.603.494-1.092 1.103-1.092s1.102.489 1.102 1.092"/></g><path d="M124.174 52.34H57.655c-.474 0-.862-.37-.862-.823 0-.452.388-.821.863-.821h66.518c.474 0 .862.37.862.821 0 .452-.388.822-.862.822m0 3.874H57.655c-.474 0-.862-.37-.862-.821 0-.452.388-.822.863-.822h66.518c.474 0 .862.37.862.822 0 .452-.388.821-.862.821m0 3.875H57.655c-.474 0-.862-.37-.862-.822 0-.452.388-.822.863-.822h66.518c.474 0 .862.37.862.822 0 .452-.388.822-.862.822m0 3.874H57.655c-.474 0-.862-.37-.862-.822 0-.452.388-.822.863-.822h66.518c.474 0 .862.37.862.822 0 .452-.388.822-.862.822m-42.663 3.874H57.655c-.474 0-.862-.37-.862-.822 0-.452.388-.822.862-.822h23.856c.474 0 .863.37.863.822 0 .452-.389.822-.863.822m98.816-39.429H134.73c-.475 0-.863-.37-.863-.822 0-.452.388-.822.863-.822h45.597c.474 0 .862.37.862.822 0 .452-.388.822-.862.822m0 3.874H134.73c-.475 0-.863-.37-.863-.822 0-.452.388-.822.863-.822h45.597c.474 0 .862.37.862.822 0 .452-.388.822-.862.822m0 3.874H134.73c-.475 0-.863-.37-.863-.822 0-.452.388-.821.863-.821h45.597c.474 0 .862.37.862.821 0 .452-.388.822-.862.822m0 3.875H134.73c-.475 0-.863-.37-.863-.822 0-.452.388-.822.863-.822h45.597c.474 0 .862.37.862.822 0 .452-.388.821-.862.821m-34.374 3.875H134.73c-.475 0-.863-.37-.863-.822 0-.452.388-.822.863-.822h11.223c.475 0 .863.37.863.822 0 .452-.388.822-.863.822" fill="#1F3142"/><path d="M154.66 67.014h-4.16V48.803c0-.39.331-.705.74-.705h2.68c.408 0 .739.316.739.705v18.211zm-16.634 0h-4.159v-4.943c0-.39.331-.705.74-.705h2.68c.408 0 .739.316.739.705v4.943zm8.317 0h-4.159V57.69c0-.39.331-.705.74-.705h2.68c.408 0 .739.316.739.705v9.324z" fill="#FFA493"/><path d="M142.184 67.014h-4.158V51.738c0-.39.33-.704.739-.704h2.68c.408 0 .74.315.74.704v15.276zm8.317 0h-4.158V53.88c0-.39.33-.705.739-.705h2.68c.408 0 .74.316.74.705v13.135zm8.317 0h-4.158V56.91c0-.39.33-.705.739-.705h2.68c.408 0 .739.316.739.705v10.104z" fill="#FFC3B2"/><path d="M179.593 67.014h-4.158V48.803c0-.39.33-.705.739-.705h2.68c.408 0 .74.316.74.705v18.211z" fill="#FFA493"/><path d="M179.593 67.014h-4.158V48.803c0-.39.33-.705.739-.705h2.68c.408 0 .74.316.74.705v18.211z" stroke="#FFA493" stroke-width=".5"/><path d="M162.96 67.014h-4.16v-4.943c0-.39.332-.705.74-.705h2.68c.408 0 .74.316.74.705v4.943zm8.316 0h-4.158V57.69c0-.39.33-.705.739-.705h2.68c.408 0 .74.316.74.705v9.324z" fill="#FFA493"/><path d="M167.118 67.014h-4.159V51.738c0-.39.331-.704.74-.704h2.68c.408 0 .739.315.739.704v15.276zm8.317 0h-4.159V53.88c0-.39.331-.705.74-.705h2.68c.408 0 .739.316.739.705v13.135z" fill="#FFC3B2"/><path d="M234.901 40.091c2.168 0 3.925 1.703 3.925 3.802 0 2.1-1.757 3.802-3.925 3.802-2.167 0-3.924-1.702-3.924-3.802s1.757-3.802 3.924-3.802" fill="#E6F5FA"/><path d="M284.992 137.37c-3.556-10.126-6.311-21.612-4.127-35.786l-5.212-.803c-2.218 14.431.37 26.423 3.773 36.59h5.566z" fill="#013E78"/><path d="M281.228 105.563s4.878-18.642 22.968-11.36c10.306 4.15 9.734 24.61-.793 43.168h-19.67c.68-9.277-.29-20.742-2.506-31.807l.001-.001z" fill="#A783C8"/><path d="M280.572 105.31c.337-1.208 5.668-19.11 23.9-11.77 2.78 1.12 4.814 3.33 6.12 6.322 2.144 4.915 2.308 11.98.564 19.752-1.283 5.714-3.599 11.826-6.92 17.757h-1.633c3.461-6.022 5.86-12.258 7.165-18.07 1.68-7.481 1.542-14.232-.481-18.87-1.157-2.651-2.934-4.599-5.344-5.57-16.398-6.6-21.457 8.966-21.972 10.724 1.572 7.9 2.513 16.007 2.674 23.388a89.632 89.632 0 0 1-.187 8.398h-1.426c.195-2.63.256-5.44.192-8.37-.16-7.329-1.105-15.41-2.684-23.3a.71.71 0 0 1 .032-.39" fill="#6E003F"/><path d="M225.332 85.677v18.904a3.55 3.55 0 0 1-3.55 3.55h-28.337a3.55 3.55 0 0 1-3.55-3.55V85.677a3.55 3.55 0 0 1 3.55-3.551h28.337a3.55 3.55 0 0 1 3.55 3.55" fill="#CCE4EB"/><path d="M225.332 96.502v9.52a2.109 2.109 0 0 1-2.108 2.109h-31.221a2.108 2.108 0 0 1-2.109-2.109v-.812l7.772-8.651a.967.967 0 0 1 1.415-.026l5.82 6.022a.967.967 0 0 0 1.409-.018l11.972-13.05a.968.968 0 0 1 1.468.05l5.582 6.965zm-23.909-7.846a3.548 3.548 0 1 0-7.095 0 3.548 3.548 0 0 0 7.095 0" fill="#E6EDF0"/><path d="M293.299 97.263a131.779 131.779 0 0 0 1.676 5.254 591.92 591.92 0 0 0-7.136 4.408c-1.286-3.048-2.074-4.621-1.88-3.426.33 1.11.734 2.42 1.19 3.859a781.19 781.19 0 0 0-8.39 5.343c-1.053-2.472-1.663-3.637-1.494-2.599.252.85.56 1.856.912 2.976-5.6 3.63-10.043 6.637-10.394 7.161-.835 1.25 3.164-.772 9.144-4.405a115.05 115.05 0 0 0 1.773-1.103 618.06 618.06 0 0 0 2.737 8.345c-6.24 4.021-11.404 7.491-11.783 8.059-.836 1.248 3.164-.773 9.144-4.406.878-.533 1.964-1.218 3.192-2.01a602.845 602.845 0 0 0 2.758 7.988 532.426 532.426 0 0 0-7.155 4.664h2.916l.49-.297c1.14-.693 2.63-1.64 4.327-2.746a241.11 241.11 0 0 0 1.113 3.043h1.776c-.46-1.278-.947-2.616-1.45-3.985a607.126 607.126 0 0 0 7.58-5.08c.264.703.513 1.35.742 1.927 1.032 2.61 1.967 4.822 2.722 6.437l-1.173.7h2.605l-.16-.51a238.049 238.049 0 0 0 3.67-2.633c.88-.838-.846.041-3.926 1.845-.72-2.187-1.819-5.288-3.076-8.723a598.795 598.795 0 0 0 7.17-4.973c.826 1.636 1.34 2.27 1.385 1.52.015-.253-.188-1.008-.55-2.112 1.044-.742 1.972-1.41 2.739-1.974.783-.746-.502-.13-2.967 1.288-.744-2.188-1.945-5.383-3.268-8.743a247.047 247.047 0 0 0 4.034-2.89c.919-.876-1.005.123-4.35 2.093a334.65 334.65 0 0 0-3.575-8.684 307.97 307.97 0 0 0 6.054-4.304c1.099-1.047-1.868.586-6.466 3.355-1.707-3.903-2.92-6.278-2.656-4.662zm-7.122 34.53c-.97-2.621-1.98-5.31-2.96-7.87a544.598 544.598 0 0 0 7.723-5.144 410.079 410.079 0 0 0 2.902 8.18 792.886 792.886 0 0 0-7.665 4.833zm9.1-5.725a688.921 688.921 0 0 0-3.066-8.152 663.516 663.516 0 0 0 6.813-4.696l.65 1.642c1.112 2.808 2.11 5.154 2.892 6.793-1.98 1.16-4.518 2.7-7.288 4.413zm-12.673-3.743a392.717 392.717 0 0 0-3.187-8.05c2.3-1.472 5.201-3.39 8.211-5.419a545.211 545.211 0 0 0 2.824 8.5 794.375 794.375 0 0 0-7.848 4.969zm9.092-5.745a415.785 415.785 0 0 0-3.275-8.258 711.043 711.043 0 0 0 6.925-4.739c1.045 2.972 2.129 5.73 3.32 8.733a480.42 480.42 0 0 0-6.97 4.264z" fill="#6E003F"/><path d="M168.791 137.37c.38-1.845 1.33-3.627 2.402-4.431 2.35-1.762 17.85-13.592 19.321-15.606.274-.375.567-.952.864-1.643-2.883 9.67-4.143 16.85-4.676 21.68h-17.911z" fill="#FFC803"/><path d="M283.73 137.37c1.46-19.883-4.662-49.819-14.378-64.32 2.848-7.241 2.282-15.822-2.603-16.816-4.859-.988-7.35 2.874-8.406 5.27-11.108-8.129-24.45-9.584-36.644-6.837-1.833-2.913-4.674-5.886-8.398-5.128-3.253.661-3.789 4.74-3.113 9.1-20.713 9.798-33.5 31.463-16.151 48.811 0 0-6.333 14.624-7.54 29.92h97.234z" fill="#FFC803"/><path d="M249.721 114.828c-3.747 3.907-16.957 9.138-16.017 15.599.604 4.158 6.67 5.916 13.511 2.636 3.79-1.816 7.753-5.695 11.311-10.343 5.641-7.366 3.84-.138-1.914 6.474-3.126 3.592-8.696 7.378-14.112 8.177h-3.954c-2.237-.338-4.77-1.111-6.253-3.173-1.96-2.724-1.401-6.64 1.19-10.134 4.516-6.092 11.543-8.315 15.911-11.998 2.118-1.785 2.01-2.526 2.556-2.607 1.318-.194 1.519 1.462-2.229 5.37m-55.755-5.763c-2.734 3.196-9.691 10.305-16.446 16.177-2.62 2.278-10.451 6.335-11.435 12.128h3.106c.588-2.26 2.213-4.585 3.857-5.84 4.832-3.685 16.216-12.487 17.466-14.198 1.471-2.015 3.452-8.267 3.452-8.267m45.52-32.03c.599-.213 1.3-.28 2.1-.071 3.025.793 2.907 7.723-2.438 7.723-3.277 0-3.074-6.44.338-7.652m-37.57-.022c-1.52-.089-2.823-2.41-1.772-4.356 1.602-2.969 5.658-3.021 6.143-.28.448 2.54-2.003 4.774-4.371 4.636m13.211 6.059s-.411-.705-1.351-1.645c-.94-.94-3.23-5.344 2.173-5.403 5.404-.059 9.104 2.114 6.696 4.875-2.408 2.76-6.402 2.231-4.053 3.759 2.35 1.527 5.374-.676 5.08.528-.293 1.204-1.468 1.733-2.819 1.85-1.35.118-1.85 1.263-2.143 2.966-.294 1.704-.94 3.466-4.23 3.201-3.288-.264-3.083-6.314-2.584-7.195.5-.88-1.79-2.143-1.85-3.347-.058-1.204.999-.235 2.29.704 1.293.94 2.938.323 2.79-.293" fill="#6E003F"/><path d="M216.096 87.566c.44-.587.352-2.379 1.116-1.968.763.411 1.028 4.288-.91 5.727-1.939 1.439-3.378-1.087-3.113-3.436.264-2.35 1.497-2.966 1.674-2.467.077.22.171.631.253 1.024.062.3.28 2.054.98 1.12" fill="#FEFEFE"/><path d="M282.72 137.37c.64-8.15-.038-18.096-1.743-27.98-2.394-13.878-6.803-27.576-12.423-35.963l-.333-.497.217-.551a24.4 24.4 0 0 0 1.199-4.046c.54-2.66.599-5.252.127-7.322-.423-1.86-1.269-3.25-2.565-3.76a3.18 3.18 0 0 0-.53-.157c-1.665-.34-2.984-.005-4.018.643-1.563.98-2.558 2.7-3.117 3.971l-.571 1.298-1.146-.839c-5.152-3.77-10.797-6.064-16.578-7.143-6.368-1.188-12.907-.907-19.143.497l-.785.177-.428-.68c-.851-1.354-1.925-2.712-3.191-3.624-1.165-.84-2.512-1.302-4.016-.996-1.04.211-1.694.96-2.057 2.022-.518 1.513-.499 3.6-.16 5.789l.13.84-.767.364c-5.367 2.539-10.19 5.893-14.064 9.767-4.22 4.22-7.3 9.042-8.708 14.077-1.392 4.98-1.152 10.19 1.24 15.25 1.267 2.675 3.14 5.32 5.701 7.88l.543.544-.302.71c-.03.07-6.346 14.654-7.508 29.73h-2.23c1.003-13.666 6.07-26.788 7.347-29.916-2.474-2.577-4.322-5.253-5.61-7.976-2.644-5.588-2.91-11.337-1.375-16.828 1.52-5.437 4.804-10.602 9.288-15.086 3.868-3.868 8.642-7.24 13.952-9.849-.268-2.226-.207-4.356.364-6.027.624-1.824 1.813-3.125 3.761-3.52 2.22-.452 4.155.193 5.8 1.378 1.321.953 2.438 2.252 3.348 3.585 6.29-1.321 12.864-1.544 19.28-.347 5.701 1.064 11.274 3.245 16.414 6.766.738-1.32 1.83-2.766 3.384-3.74 1.487-.933 3.357-1.419 5.677-.947.321.065.623.154.904.265 2.072.814 3.368 2.796 3.957 5.383.542 2.378.485 5.308-.119 8.276a26.714 26.714 0 0 1-1.095 3.868c5.648 8.696 10.057 22.46 12.453 36.35 1.72 9.97 2.407 20.032 1.778 28.365h-2.282z" fill="#6E003F"/><path d="M136.283 78.973s-2.844.114-2.844 2.16c0 2.048 2.844 39.238 2.844 39.238s.284 2.047 2.331 1.99c2.047-.056 54.307.057 54.307.057s.626-.227.682-1.763c.057-1.535-3.07-39.92-3.07-39.92s-.285-1.421-1.99-1.592c-1.707-.17-52.26-.17-52.26-.17z" fill="#A783C8"/><path d="M136.283 78.973s-2.844.114-2.844 2.16c0 2.048 2.844 39.238 2.844 39.238s.284 2.047 2.331 1.99c2.047-.056 54.307.057 54.307.057s.626-.227.682-1.763c.057-1.535-3.07-39.92-3.07-39.92s-.285-1.421-1.99-1.592c-1.707-.17-52.26-.17-52.26-.17z" stroke="#6E003F" stroke-width="2.48"/><path d="M231.303 136.235s.17-4.89 5.573-6.483c5.402-1.592 11.032.626 12.055 4.379 1.024 3.753-17.628 2.104-17.628 2.104" fill="#F5F5F5"/><path d="M230.38 136.195c0-.016.194-5.55 6.235-7.33l.269-.075c2.836-.774 5.717-.579 8.036.3 2.415.914 4.25 2.577 4.873 4.688l.033.114h-.003c.637 2.353-3.363 3.222-7.814 3.479h-7.395a84.921 84.921 0 0 1-3.39-.213l-.885-.076.04-.887zm6.757-5.556c-3.397 1.001-4.446 3.434-4.768 4.752 3.661.279 16.246 1.09 15.672-1.018l-.004-.003-.019-.07c-.45-1.529-1.865-2.765-3.75-3.48-1.983-.75-4.455-.915-6.899-.248l-.232.067z" fill="#6E003F"/><path d="M118.713 134.901h166.705c.875 0 1.592.716 1.592 1.592 0 .324-.098.626-.266.878H117.386a1.579 1.579 0 0 1-.266-.878c0-.876.717-1.592 1.593-1.592" fill="#6E003F"/><path d="M157.122 107.433s.227-.683.768-.797c.54-.113 9.951.057 9.951.057s.427 0 .228 1.422c-.2 1.422-3.299 26.613-3.299 26.613h-12.453l4.805-27.295z" fill="#A783C8"/><path d="M157.122 107.433s.227-.683.768-.797c.54-.113 9.951.057 9.951.057s.427 0 .228 1.422c-.2 1.422-3.299 26.613-3.299 26.613h-12.453l4.805-27.295z" stroke="#6E003F" stroke-width="2.48"/><path d="M142.565 133.505h31.389c.672 0 1.223.55 1.223 1.223v.796c0 .672-.55 1.223-1.223 1.223h-31.39c-.672 0-1.222-.55-1.222-1.223v-.796c0-.672.55-1.223 1.223-1.223" fill="#6E003F"/><path d="M177.963 132.368h38.498c.25 0 .455.205.455.455v2.332c0 .25-.205.454-.455.454h-38.498a.456.456 0 0 1-.455-.454v-2.332c0-.25.205-.455.455-.455z" fill="#F5F5F5"/><path d="M177.963 132.368h38.498c.25 0 .455.205.455.455v2.332c0 .25-.205.454-.455.454h-38.498a.456.456 0 0 1-.455-.454v-2.332c0-.25.205-.455.455-.455z" stroke="#6E003F" stroke-width="1.488"/><path d="M161.773 91.484s-.199-1.621.029-1.621c.227 0 .355-.54-.043-.64-.398-.1-2.019-.199-1.92.356.1.554.356.056.384.611.029.554-.07 1.336-.07 1.336s-.825-.312-2.076.853c-1.251 1.166-1.337 2.815-.796 2.815.54 0 1.28-.597 3.867-.625 2.587-.029 4.037 1.08 4.435.54.398-.54-1.65-3.782-3.81-3.625m-3.553 4.764c.525-.184 1.402-.385 2.785-.429 2.701-.085 4.18.342 4.066 1.337-.114.995-1.08 4.35-3.241 5.06-1.615.532-3.178-1.762-3.86-3.702-.392-1.114-.81-1.893.25-2.266" fill="#F5F5F5"/></g></svg>