<svg xmlns="http://www.w3.org/2000/svg" width="40" height="40" viewBox="0 0 40 40"><defs><style>.cls-1{fill:#fff;fill-rule:evenodd}</style></defs><path id="Forma_1" data-name="Forma 1" class="cls-1" d="M1332.96 374h-17.92a11.05 11.05 0 0 0-11.04 11.038v17.922a11.05 11.05 0 0 0 11.04 11.04h17.92a11.05 11.05 0 0 0 11.04-11.04v-17.922A11.05 11.05 0 0 0 1332.96 374zm7.49 28.961a7.5 7.5 0 0 1-7.49 7.49h-17.92a7.5 7.5 0 0 1-7.49-7.49v-17.923a7.5 7.5 0 0 1 7.49-7.49h17.92a7.5 7.5 0 0 1 7.49 7.49v17.922zM1324 383.692A10.307 10.307 0 1 0 1334.31 394a10.324 10.324 0 0 0-10.31-10.308zm0 17.064a6.758 6.758 0 1 1 6.76-6.757 6.764 6.764 0 0 1-6.76 6.757zm10.74-20.073a2.6 2.6 0 0 0-2.6 2.6 2.6 2.6 0 1 0 4.44-1.841 2.6 2.6 0 0 0-1.84-.759z" transform="translate(-1304 -374)"/></svg>