<svg xmlns="http://www.w3.org/2000/svg" width="53" height="50" viewBox="0 0 53 50"><defs><style>.cls-1{fill:#b86ca2;fill-rule:evenodd}</style></defs><path class="cls-1" d="M45.43 18.91a18.93 18.93 0 0 0-37.86-.04v.04A8.026 8.026 0 0 0 0 26.89v.94a8.03 8.03 0 0 0 8.04 8.02h.43l3.36 5.33a12.682 12.682 0 0 0 10.84 5.99h.66a3.775 3.775 0 1 0 0-1.89h-.66a10.8 10.8 0 0 1-9.23-5.14l-2.75-4.29h.67a1.9 1.9 0 0 0 1.89-1.89V20.75a1.893 1.893 0 0 0-1.89-1.88h-1.9a17.04 17.04 0 0 1 34.08 0h-1.9a1.893 1.893 0 0 0-1.89 1.88v13.21a1.9 1.9 0 0 0 1.89 1.89h3.32A8.03 8.03 0 0 0 53 27.83v-.94a8.026 8.026 0 0 0-7.57-7.98zM26.97 44.34a1.885 1.885 0 1 1-1.89 1.89 1.9 1.9 0 0 1 1.89-1.89zM11.36 20.75v13.21H8.04a6.129 6.129 0 0 1-6.15-6.13v-.94a6.137 6.137 0 0 1 6.15-6.14h3.32zm39.75 7.08a6.129 6.129 0 0 1-6.15 6.13h-3.32V20.75h3.32a6.137 6.137 0 0 1 6.15 6.14v.94zM34.36 7.12a2.954 2.954 0 0 1-.38-.23c-.15-.1-.29-.19-.38-.24a.9.9 0 0 0-1.28.33.919.919 0 0 0 .33 1.27c.1.05.24.15.38.24a2.038 2.038 0 0 0 .43.24.944.944 0 0 0 .47.14.873.873 0 0 0 .8-.47.955.955 0 0 0-.37-1.28zm-7.86-2.4a13.714 13.714 0 0 0-10.41 4.76.963.963 0 0 0 .09 1.32 1.019 1.019 0 0 0 .62.24.875.875 0 0 0 .71-.33 11.8 11.8 0 0 1 11.55-3.82 1 1 0 0 0 1.13-.71.987.987 0 0 0-.71-1.13 12.606 12.606 0 0 0-2.98-.33z"/></svg>