<svg xmlns="http://www.w3.org/2000/svg" width="65" height="65" viewBox="0 0 65 65"><defs><style>.cls-1{fill-rule:evenodd;filter:url(#filter)}</style><filter id="filter" x="1001" y="1535" width="65" height="65" filterUnits="userSpaceOnUse"><feFlood result="flood" flood-color="#24242a"/><feComposite result="composite" operator="in" in2="SourceGraphic"/><feBlend result="blend" in2="SourceGraphic"/></filter></defs><path class="cls-1" d="M23.85 14.67l-.92-1.87c-.65.32-1.3.67-1.93 1.05l1.1 1.78a19.824 19.824 0 0 1 1.75-.96zm3.73-1.35l-.52-2.02c-.7.18-1.41.39-2.1.64l.72 1.96c.62-.22 1.26-.42 1.9-.58zm-10.03 6.12l-1.57-1.37c-.48.54-.94 1.12-1.37 1.71l1.71 1.21a18.592 18.592 0 0 1 1.23-1.55zm1.39-1.42a18.7 18.7 0 0 1 1.52-1.28l-1.27-1.65a20.545 20.545 0 0 0-1.68 1.41zm10.28-7.15l.31 2.06c.66-.1 1.33-.16 1.98-.2l-.1-2.08c-.72.04-1.46.11-2.19.22zm23.36 12.7a19.729 19.729 0 0 0-1-1.94l-1.81 1.03c.32.57.63 1.16.9 1.77zM47.5 16.5c-.53-.49-1.1-.97-1.68-1.41l-1.27 1.66c.52.4 1.03.83 1.52 1.28zm-35.08 7.06l1.92.85a19.43 19.43 0 0 1 .9-1.76l-1.82-1.04c-.36.63-.7 1.29-1 1.95zm23.06-10.63l.32-2.06c-.72-.11-1.46-.18-2.19-.22l-.11 2.08c.67.04 1.33.1 1.98.2zm8.53.93c-.63-.39-1.28-.74-1.93-1.06l-.91 1.88a18.458 18.458 0 0 1 1.74.95zm-6.58-.54a18.141 18.141 0 0 1 1.9.59l.73-1.96c-.69-.25-1.4-.47-2.11-.65zm10.02 6.13A18.3 18.3 0 0 1 48.69 21l1.7-1.21c-.42-.59-.88-1.17-1.36-1.72zM29.52 52.07l-.32 2.06c.72.11 1.46.18 2.19.22l.11-2.08c-.67-.04-1.33-.1-1.98-.2zm6.26 2.06l-.31-2.06c-.66.1-1.33.16-1.98.2l.1 2.08c.72-.04 1.46-.11 2.19-.22zm5.37-3.8l.92 1.87c.65-.32 1.3-.67 1.93-1.05l-1.1-1.78a19.824 19.824 0 0 1-1.75.96zm-3.73 1.35l.52 2.02c.7-.18 1.41-.4 2.1-.64l-.72-1.96c-.62.22-1.26.42-1.9.58zm8.64-4.7c-.48.45-1 .88-1.52 1.28l1.27 1.65a20.545 20.545 0 0 0 1.68-1.41zm6.52-5.54l-1.92-.85a19.43 19.43 0 0 1-.9 1.76l1.82 1.04c.36-.63.7-1.29 1-1.95zm-31.59 9.7c.63.39 1.28.74 1.93 1.06l.91-1.88a18.458 18.458 0 0 1-1.74-.95zm26.46-5.58l1.57 1.37c.48-.54.94-1.12 1.37-1.71l-1.71-1.21c-.38.53-.8 1.06-1.23 1.55zm-29.9-.01A18.3 18.3 0 0 1 16.31 44l-1.71 1.21c.43.59.89 1.17 1.37 1.72zm-.05 2.95c.53.49 1.1.97 1.68 1.41l1.27-1.66c-.52-.4-1.04-.83-1.52-1.28zm-5.08-7.07a19.729 19.729 0 0 0 1 1.94l1.81-1.03c-.32-.57-.63-1.16-.9-1.77zm15.15 10.25a18.141 18.141 0 0 1-1.9-.59l-.73 1.96c.69.25 1.4.47 2.11.65zM31.45 3.2v5.34h2.1V3.2l4.66 3.08 1.16-1.73L32.5 0l-6.87 4.55 1.16 1.73zM10.9 12.52l3.81 3.78 1.48-1.48-3.8-3.78 5.49-1.09-.41-2.04-8.1 1.61-1.62 8.04 2.06.41zm5.29 37.66l-1.48-1.48-3.81 3.78-1.09-5.45-2.06.41 1.62 8.04 8.1 1.61.41-2.04-5.49-1.09zM33.55 61.8v-5.34h-2.1v5.34l-4.66-3.09-1.16 1.74L32.5 65l6.87-4.55-1.16-1.74zm20.55-9.32l-3.81-3.78-1.48 1.48 3.8 3.78-5.49 1.09.41 2.04 8.1-1.61 1.62-8.04-2.06-.41zm-5.29-37.66l1.48 1.48 3.81-3.78 1.09 5.45 2.06-.41-1.62-8.04-8.1-1.61-.41 2.04 5.49 1.09zm9.9 11.43a6.3 6.3 0 0 0-3.48 1.08 38.907 38.907 0 0 0-45.46 0 6.25 6.25 0 1 0 0 10.34 38.907 38.907 0 0 0 45.46 0 6.252 6.252 0 1 0 3.48-11.42zM6.29 36.67a4.17 4.17 0 1 1 0-8.34 4.037 4.037 0 0 1 1.64.36 30.26 30.26 0 0 0-3.46 3.11l-.65.7.65.7a30.26 30.26 0 0 0 3.46 3.11 4.037 4.037 0 0 1-1.64.36zm.43-4.17a40.082 40.082 0 0 1 17.54-9.43 12.4 12.4 0 0 0 0 18.85A40.161 40.161 0 0 1 6.72 32.5zM32.5 42.92A10.42 10.42 0 1 1 42.98 32.5 10.465 10.465 0 0 1 32.5 42.92zm8.23-.99a12.395 12.395 0 0 0 .01-18.85 40.161 40.161 0 0 1 17.54 9.42 40.073 40.073 0 0 1-17.55 9.43zm17.98-5.26a4.037 4.037 0 0 1-1.64-.36 30.26 30.26 0 0 0 3.46-3.11l.65-.7-.65-.7a30.26 30.26 0 0 0-3.46-3.11 4.037 4.037 0 0 1 1.64-.36 4.17 4.17 0 1 1 0 8.34zM32.5 25.21a7.29 7.29 0 1 0 4.05 13.37l-1.16-1.74a5.187 5.187 0 1 1 1.65-1.74l1.81 1.05a7.222 7.222 0 0 0 .99-3.65 7.321 7.321 0 0 0-7.34-7.29z"/></svg>