<svg xmlns="http://www.w3.org/2000/svg" width="60" height="60" viewBox="0 0 60 60"><defs><style>.cls-1{fill-rule:evenodd;filter:url(#filter)}</style><filter id="filter" x="1005" y="1322" width="60" height="60" filterUnits="userSpaceOnUse"><feFlood result="flood" flood-color="#24242a"/><feComposite result="composite" operator="in" in2="SourceGraphic"/><feBlend result="blend" in2="SourceGraphic"/></filter></defs><path class="cls-1" d="M53.23 39.68H45.5a8.713 8.713 0 0 0 8.69-8.71v-3.91a6.749 6.749 0 0 0-6.74-6.74h-3.94a6.754 6.754 0 0 0-6.72 6.35 3.756 3.756 0 0 0-1.37-.5 4.445 4.445 0 0 0-3.71-1.98h-4.14a6.3 6.3 0 0 0-4.44 1.84 6.776 6.776 0 0 0-6.68-5.71h-3.87a6.777 6.777 0 0 0-6.77 6.78v3.6a8.87 8.87 0 0 0 8.13 8.96c.19.01.38.02.57.02H6.77A6.782 6.782 0 0 0 0 46.45v9.68h15.48V60h29.04v-3.87H60v-9.68a6.782 6.782 0 0 0-6.77-6.77zm-5.89 1.93l-1.86 2.32-1.85-2.32h3.71zm-3.83-19.35h3.94a4.8 4.8 0 0 1 4.79 4.6 32.377 32.377 0 0 0-13.51 0 4.8 4.8 0 0 1 4.78-4.6zM38.71 30v-1.16a30.676 30.676 0 0 1 13.55 0v2.13a6.778 6.778 0 0 1-7.23 6.76 6.935 6.935 0 0 1-6.32-7.03V30zm-.12 6.19a8.617 8.617 0 0 0 6.32 3.47c.19.01.38.02.57.02h-7.74c-.18 0-.36.03-.54.04a8.716 8.716 0 0 0 1.39-3.53zm-15.36-5.22v-.5a4.342 4.342 0 0 1 4.34-4.34h4.14a2.522 2.522 0 0 1 2.26 1.4l.27.53h.6A1.933 1.933 0 0 1 36.77 30v2.75a3.078 3.078 0 0 1-1.93-1.94l-.27-.81H32.5l-1.15 1.15a2.657 2.657 0 0 1-1.89.79h-6.23v-.97zm0 2.9h6.23a4.584 4.584 0 0 0 3.26-1.35l.52-.52a4.96 4.96 0 0 0 3.53 2.73v.11a6.777 6.777 0 0 1-7.22 6.76 6.928 6.928 0 0 1-6.32-7.03v-.7zm8.43 11.61l-.48 1.94h-2.36l-.48-1.94h3.32zm-3.39-2.11a10.969 10.969 0 0 0 1.15.16c.19.01.38.02.57.02h-1.64c-.03-.06-.05-.13-.08-.18zm3.38.18h-1.63a8.674 8.674 0 0 0 1.7-.17c-.02.05-.05.11-.07.17zm-10.21-7.32a9.269 9.269 0 0 0 1.44 3.5c-.21-.02-.41-.05-.62-.05h-7.73a8.658 8.658 0 0 0 5.94-2.36 7.716 7.716 0 0 0 .97-1.09zM7.74 27.1a4.844 4.844 0 0 1 4.84-4.84h3.87a4.844 4.844 0 0 1 4.84 4.84v1.77a3.055 3.055 0 0 1-1.94-1.93l-.27-.81h-2.06l-1.16 1.15a2.607 2.607 0 0 1-1.88.78H7.74v-.96zm6.32 10.63a6.935 6.935 0 0 1-6.32-7.03V30h6.24a4.561 4.561 0 0 0 3.25-1.35l.52-.52a4.977 4.977 0 0 0 3.54 2.73v.11a6.778 6.778 0 0 1-7.23 6.76zm3.18 3.88a2.884 2.884 0 0 1-5.45 0h5.45zm-1.76 12.58H7.74v-6.77H5.81v6.77H1.94v-7.74a4.842 4.842 0 0 1 4.83-4.84h3a4.844 4.844 0 0 0 9.49 0h3a4.83 4.83 0 0 1 3.86 1.94h-3.86a6.784 6.784 0 0 0-6.78 6.77v3.87zm7.75 3.87v-6.77h-1.94v6.77h-3.87v-7.74a4.844 4.844 0 0 1 4.84-4.84h4.08l.74 2.96-1.03 7.19 3.66 2.43h-6.48zm4.91-3.37l.76-5.34h2.2l.76 5.34L30 55.93zm14.44 3.37h-3.87v-6.77h-1.94v6.77h-6.48l3.66-2.43-1.03-7.19.74-2.96h4.08a4.844 4.844 0 0 1 4.84 4.84v7.74zm15.48-3.87h-3.87v-6.77h-1.93v6.77h-7.74v-3.87a6.784 6.784 0 0 0-6.78-6.77h-3.86a4.83 4.83 0 0 1 3.86-1.94h3.41l4.33 5.42 4.34-5.42h3.41a4.842 4.842 0 0 1 4.83 4.84v7.74zM26.13 3.87h17.42v1.94H26.13V3.87zm-9.68 0h7.74v1.94h-7.74V3.87zm0 3.87h27.1v1.94h-27.1V7.74zm25.16 3.87h1.94v1.94h-1.94v-1.94zm-25.16 0h23.23v1.94H16.45v-1.94zm-.97 5.81h10.96l1.94 4.84h3.24l1.94-4.84h10.96a2.9 2.9 0 0 0 2.9-2.9V2.9a2.9 2.9 0 0 0-2.9-2.9H15.48a2.9 2.9 0 0 0-2.9 2.9v11.62a2.9 2.9 0 0 0 2.9 2.9zM14.52 2.9a.96.96 0 0 1 .96-.96h29.04a.96.96 0 0 1 .96.96v11.62a.96.96 0 0 1-.96.96H32.25l-1.94 4.84h-.62l-1.94-4.84H15.48a.96.96 0 0 1-.96-.96V2.9z"/></svg>