<svg xmlns="http://www.w3.org/2000/svg" width="58" height="58" viewBox="0 0 58 58"><defs><style>.cls-1{fill-rule:evenodd;filter:url(#filter)}</style><filter id="filter" x="527" y="1539" width="58" height="58" filterUnits="userSpaceOnUse"><feFlood result="flood" flood-color="#24242a"/><feComposite result="composite" operator="in" in2="SourceGraphic"/><feBlend result="blend" in2="SourceGraphic"/></filter></defs><path id="Forma_1" data-name="Forma 1" class="cls-1" d="M577.515 1546.48v-1.87h-4.744a6.549 6.549 0 0 0-12.962 0h-4.744v1.87h-7.484V1597H585v-50.52h-7.485zm-18.709 7.49v-1.87h-1.871v-5.62h4.677v-.93a4.678 4.678 0 1 1 9.355 0v.93h4.677v5.62h-14.967v1.87h16.838v-1.87h1.871v31.8H571.9v7.49h-18.707v-39.29h1.871v1.87h3.742zm19.257 31.8l-4.29 4.29v-4.29h4.29zm5.065 9.36h-33.677v-46.78h5.613v1.88h-3.742v43.03h21.9l8.032-8.03v-35h-3.742v-1.88h5.613v46.78zm-26.467-32.08l2.145-2.15 2.145 2.15 1.323-1.32-2.145-2.15 2.145-2.14-1.323-1.33-2.145 2.15-2.145-2.15-1.323 1.33 2.145 2.14-2.145 2.15zm19.257 10.84l-2.145 2.14-2.145-2.14-1.322 1.32 2.145 2.14-2.145 2.15 1.322 1.32 2.145-2.14 2.145 2.14 1.323-1.32-2.145-2.15 2.145-2.14zm-3.08-8.7a4.675 4.675 0 1 0-4.677-4.67 4.676 4.676 0 0 0 4.677 4.67zm0-7.48a2.805 2.805 0 1 1-2.806 2.81 2.811 2.811 0 0 1 2.806-2.81zm-13.1 24.32a4.675 4.675 0 1 0-4.677-4.68 4.685 4.685 0 0 0 4.68 4.68zm0-7.48a2.805 2.805 0 1 1-2.806 2.8 2.809 2.809 0 0 1 2.809-2.8zm-3.39-4.47l1.169 1.46a16.167 16.167 0 0 1 9.284-3.51l-2.11 2.11 1.322 1.33 4.4-4.41-4.4-4.4-1.323 1.32 2.177 2.18a18.037 18.037 0 0 0-10.516 3.92zM539.161 1539a4.684 4.684 0 0 0-4.677 4.68v4.67h-2.807a4.684 4.684 0 0 0-4.677 4.68v13.1a2.807 2.807 0 1 0 5.613 0v-12.16h1.871v34.78l2.538 6.77a2.286 2.286 0 0 0 4.279 0l2.537-6.77v-45.07a4.684 4.684 0 0 0-4.677-4.68zm-4.677 13.1h-1.871a1.873 1.873 0 0 0-1.871 1.87v12.16a.936.936 0 0 1-1.871 0v-13.1a2.8 2.8 0 0 1 2.806-2.8h2.807v1.87zm5.065 42.76a.433.433 0 0 1-.775 0l-2-5.34h4.784zm2.418-7.21h-5.612v-28.07h5.612v28.07zm0-29.94h-5.612v-14.03a2.806 2.806 0 1 1 5.612 0v14.03z" transform="translate(-527 -1539)"/></svg>