<svg xmlns="http://www.w3.org/2000/svg" width="59" height="59" viewBox="0 0 59 59"><defs><style>.cls-1{fill-rule:evenodd;filter:url(#filter)}</style><filter id="filter" x="767" y="1536" width="59" height="59" filterUnits="userSpaceOnUse"><feFlood result="flood" flood-color="#24242a"/><feComposite result="composite" operator="in" in2="SourceGraphic"/><feBlend result="blend" in2="SourceGraphic"/></filter></defs><path class="cls-1" d="M57.1 57.1V40.92H40.919V24.74H18.081v16.18H1.9V57.1H0V59h59v-1.9h-1.9zm-39.016 0H3.806V42.82h14.275V57.1zm20.935-4.76h-1.9v1.9h1.9v2.86H19.984v-2.86H35.21v-1.9H19.984V26.65h19.032v25.69zm16.177 4.76H40.919V42.82h14.274V57.1zM28.551 39.02h1.9V28.55h-3.807v1.9h1.9v8.57zM14.277 52.34h-3.86l2.243-1.35a3.377 3.377 0 0 0 1.617-2.93 3.331 3.331 0 0 0-6.661 0v1.42h1.9v-1.42a1.429 1.429 0 0 1 1.427-1.43 1.449 1.449 0 0 1 1.428 1.51 1.43 1.43 0 0 1-.694 1.22L7.613 51.8v2.44h6.661v-1.9zm37.113-.95a2.87 2.87 0 0 0-.729-1.91 2.826 2.826 0 0 0 .729-1.9 2.857 2.857 0 0 0-2.855-2.85h-3.806v1.9h3.806a.95.95 0 1 1 0 1.9h-1.9v1.91h1.9a.95.95 0 1 1 0 1.9h-3.806v1.9h3.806a2.857 2.857 0 0 0 2.852-2.85zM14.526 12.27l3.843 10.57h22.268l3.842-10.57a2.85 2.85 0 1 0-3.557-2.75 2.721 2.721 0 0 0 .122.77l-3.674 1.84a2.235 2.235 0 0 1-1.014.24 2.273 2.273 0 0 1-2.076-1.35l-2.743-6.17a2.855 2.855 0 1 0-4.069 0l-2.742 6.17a2.275 2.275 0 0 1-2.076 1.35 2.236 2.236 0 0 1-1.015-.24l-3.673-1.84a2.721 2.721 0 0 0 .122-.77 2.855 2.855 0 1 0-3.561 2.75zm29.251-3.71a.955.955 0 1 1-.952.96.957.957 0 0 1 .949-.96zM29.5 1.9a.955.955 0 1 1-.952.95.955.955 0 0 1 .952-.95zm-12.658 9.96l3.938 1.97a4.18 4.18 0 0 0 5.681-2.03l2.72-6.12c.106.01.21.03.319.03s.213-.02.319-.03l2.719 6.12a4.18 4.18 0 0 0 5.681 2.03l3.937-1.97a2.626 2.626 0 0 0 .368.21l-1.839 5.06h-6.427v1.9h5.735l-.691 1.91H19.7l-.692-1.91h5.736v-1.9h-6.427l-1.84-5.06a2.56 2.56 0 0 0 .365-.21zm-1.616-3.3a.955.955 0 1 1-.952.96.956.956 0 0 1 .952-.96zM29.5 19.98c1.6 0 2.855-1.67 2.855-3.8S31.1 12.37 29.5 12.37s-2.855 1.67-2.855 3.81 1.255 3.8 2.855 3.8zm0-5.71c.388 0 .952.75.952 1.91s-.564 1.9-.952 1.9-.952-.74-.952-1.9.564-1.91.952-1.91z"/></svg>