<svg xmlns="http://www.w3.org/2000/svg" width="77" height="67" viewBox="0 0 77 67"><defs><style>.cls-1{fill-rule:evenodd;filter:url(#filter)}</style><filter id="filter" x="286" y="1317" width="77" height="67" filterUnits="userSpaceOnUse"><feFlood result="flood" flood-color="#24242a"/><feComposite result="composite" operator="in" in2="SourceGraphic"/><feBlend result="blend" in2="SourceGraphic"/></filter></defs><path class="cls-1" d="M62.255 40.39H65.5v2.28h-3.249v-2.28zm-4.875 0h3.25v2.28h-3.25v-2.28zm-29.247 3.24h6.5v2.29h-6.5v-2.29zm-4.874 0h3.249v2.29h-3.249v-2.29zm13 0h3.249v2.29h-3.249v-2.29zm38.515-9.69v-5.03l-17.271 1.91-7.137-4.53a6.023 6.023 0 0 0-5.982-5.36h-17.4l-9.414-9.4-1.617 1.62 7.8 7.78h-7.6l-4.773 7.15h11.9l-2.129 10.2-2.531.2a10.934 10.934 0 0 0-6.822 3.15l-3.63 3.63H4.78L0 52.4h60.63v-2.28H4.272l1.726-2.58h3.111l4.3-4.29a8.6 8.6 0 0 1 5.39-2.49l1.86-.15 5.195-.42 22.751-1.84 15-1.22 9.794-.79a35.447 35.447 0 0 1-6.488 9.29l1.6 1.63a38.654 38.654 0 0 0 7.8-11.79l.685-1.71zm-46.157 3.73l-5.094.42 2.566-12.29H15.646l1.725-2.59h27.011a3.739 3.739 0 0 1 3.552 2.59H28.615v11.87zm14.623-1.18l-12.337 1v-9.41h18.022l4.952 3.14L43.24 32.4v4.09zm29.247-2.37l-26.96 2.19v-1.86l26.96-2.99v2.66zm-9.418 12.76v2.28a2.915 2.915 0 1 1 0 5.83H49.256v2.28h13.811a5.2 5.2 0 1 0 0-10.39zm4.875 9.73v2.28a2.915 2.915 0 1 1 0 5.83H39.507V67h28.435a5.2 5.2 0 1 0 0-10.39zm-47.933 8.11h16.248V67h-16.25v-2.28zm-4.874 0h2.438V67h-2.438v-2.28zm29.247-9.73h2.437v2.28h-2.437v-2.28zM46.008 0a4.361 4.361 0 0 0-3.249 1.44 4.391 4.391 0 0 0-7.643 2.94H37.4a2.107 2.107 0 0 1 4.213 0H43.9a2.107 2.107 0 0 1 4.213 0H50.4A4.394 4.394 0 0 0 46.006 0zm21.123 11.2a4.364 4.364 0 0 0-3.25 1.44 4.391 4.391 0 0 0-7.642 2.94h2.287a2.106 2.106 0 0 1 4.212 0h2.287a2.106 2.106 0 0 1 4.212 0h2.287a4.395 4.395 0 0 0-4.395-4.38z"/></svg>