<svg xmlns="http://www.w3.org/2000/svg" width="62" height="62" viewBox="0 0 62 62"><defs><style>.cls-1{fill-rule:evenodd;filter:url(#filter)}</style><filter id="filter" x="1232" y="1320" width="62" height="62" filterUnits="userSpaceOnUse"><feFlood result="flood" flood-color="#24242a"/><feComposite result="composite" operator="in" in2="SourceGraphic"/><feBlend result="blend" in2="SourceGraphic"/></filter></defs><path class="cls-1" d="M60.97 0H1.03A.971.971 0 0 0 0 1.03v47.54a.971.971 0 0 0 1.03 1.03h22.74v10.33h-3.1V62h20.66v-2.07h-3.1V49.6h22.74A.971.971 0 0 0 62 48.57V1.03A.971.971 0 0 0 60.97 0zm-24.8 59.93H25.83V49.6h10.34v10.33zm23.76-12.4H2.07v-8.26h57.86v8.26zM37.92 26.56l3.1-3.1a.992.992 0 0 0 0-1.45l-3.1-3.1-1.44 1.45 1.34 1.34H6.2V6.2h49.6v31H6.2V23.77h31.62l-1.34 1.34zM59.93 37.2h-2.06V5.17a.987.987 0 0 0-1.04-1.04H5.17a.987.987 0 0 0-1.04 1.04V37.2H2.07V2.07h57.86V37.2zM48.57 26.87a4.135 4.135 0 1 0-4.14-4.14 4.146 4.146 0 0 0 4.14 4.14zm0-6.2a2.065 2.065 0 1 1-2.07 2.06 2.07 2.07 0 0 1 2.07-2.06zM26.14 9.51l-1.34 1.44-1.34-1.44-1.55 1.55 1.44 1.34-1.44 1.45 1.44 1.44 1.45-1.44 1.45 1.44 1.44-1.44-1.44-1.45 1.44-1.34zM15.81 27.07l-1.34 1.45-1.45-1.45-1.45 1.55 1.45 1.35-1.45 1.44 1.45 1.45 1.45-1.45 1.44 1.45 1.45-1.45-1.45-1.44 1.45-1.35zm17.57 0l-1.35 1.45-1.34-1.45-1.55 1.55 1.45 1.35-1.45 1.44 1.45 1.45 1.44-1.45 1.45 1.45 1.45-1.45-1.45-1.44 1.45-1.35zm14.15-12.6h2.07v2.06h-2.07v-2.06zm0 14.46h2.07V31h-2.07v-2.07z"/></svg>