<svg xmlns="http://www.w3.org/2000/svg" width="47" height="47" viewBox="0 0 47 47"><defs><style>.cls-1{fill-rule:evenodd;filter:url(#filter)}</style><filter id="filter" x="778" y="1299" width="47" height="47" filterUnits="userSpaceOnUse"><feFlood result="flood" flood-color="#f4ebeb"/><feComposite result="composite" operator="in" in2="SourceGraphic"/><feBlend result="blend" in2="SourceGraphic"/></filter></defs><path class="cls-1" d="M25.319 18.8l1.213.91h-1.655A20.319 20.319 0 0 0 4.548 40.04v.14h1.516v-.14a18.815 18.815 0 0 1 18.813-18.81h1.655l-1.213.91.909 1.21 3.841-2.88-3.84-2.88zM7.581 24.26a3.035 3.035 0 1 0-3.033-3.03 3.035 3.035 0 0 0 3.033 3.03zm0-4.55a1.515 1.515 0 1 1-1.517 1.52 1.518 1.518 0 0 1 1.517-1.52zM23.5 25.02a3.03 3.03 0 1 0 3.032 3.03 3.035 3.035 0 0 0-3.032-3.03zm0 4.54a1.515 1.515 0 1 1 1.516-1.51 1.516 1.516 0 0 1-1.516 1.51zm-7.359 4.77l-2.117 2.12-2.117-2.12-1.072 1.08 2.117 2.11-2.117 2.12 1.072 1.07 2.117-2.11 2.117 2.11 1.072-1.07-2.117-2.12 2.117-2.11zM47 27.29a8.338 8.338 0 0 0-3.032-6.43v-4.18h1.516v-4.55h-1.331L25.725 2.55a3.02 3.02 0 0 0-5.966 0L1.331 12.13H0v4.55h1.516v25.77H0V47h45.484v-4.55h-1.516V37.9h1.516v-1.51h-1.516v-1.52h1.516v-1.52h-1.128A8.234 8.234 0 0 0 47 27.29zM22.742 1.52a1.515 1.515 0 1 1-1.516 1.51 1.516 1.516 0 0 1 1.516-1.51zm-2.809 2.64a3.026 3.026 0 0 0 5.617 0l15.317 7.97H4.617zM1.516 13.64h42.452v1.52H1.516v-1.52zm31.839 21.23v1.52h-1.516v1.51h1.516v3.04h9.1v1.51H3.032V16.68h39.419v3.19a8.325 8.325 0 0 0-12.129 7.42 8.231 8.231 0 0 0 2.645 6.06h-1.128v1.52h1.516zm9.1 3.03v1.52h-7.58V37.9h7.58zm-7.58-1.51v-1.52h7.58v1.52h-7.58zm9.1 9.09H1.516v-1.51h42.452v1.51zM42.76 32.74l-.3.23v.38h-3.032v-3.14a3.032 3.032 0 1 0-1.516 0v3.14H34.88v-.38l-.3-.23a6.823 6.823 0 1 1 8.173 0zm-4.092-3.93a1.52 1.52 0 1 1 1.516-1.52 1.518 1.518 0 0 1-1.523 1.52z"/></svg>