<svg xmlns="http://www.w3.org/2000/svg" width="61" height="61" viewBox="0 0 61 61"><defs><style>.cls-1{fill-rule:evenodd;filter:url(#filter)}</style><filter id="filter" x="1233" y="1531" width="61" height="61" filterUnits="userSpaceOnUse"><feFlood result="flood" flood-color="#24242a"/><feComposite result="composite" operator="in" in2="SourceGraphic"/><feBlend result="blend" in2="SourceGraphic"/></filter></defs><path class="cls-1" d="M58.65 59.03L40.94 24.6h-9.46v-8.86h19.63l-5.63-7.87L51.11 0H29.52v24.6h-9.46L2.35 59.03H0V61h61v-1.97h-2.35zM31.48 5.9h9.84V3.94h-9.84V1.97h15.8l-1.4 1.97h-2.59V5.9h1.18l-1.41 1.97 1.41 1.97H31.48V5.9zm0 5.91h14.4l1.4 1.96h-15.8v-1.96zM4.56 59.03l16.7-32.47h18.48l16.7 32.47H4.56zm34.79-15.74a8.85 8.85 0 1 0-14.75 6.6v1.27h-1.97v1.97h1.97v3.93h11.8v-3.93h1.97v-1.97H36.4v-1.27a8.8 8.8 0 0 0 2.95-6.6zM34.44 55.1h-7.88v-1.97h7.88v1.97zm-4.92-11.81a.98.98 0 1 1 .98.98.982.982 0 0 1-.98-.98zm5.28 5.37l-.36.3v2.2h-2.96v-5.1a2.95 2.95 0 1 0-1.96 0v5.1h-2.96v-2.2l-.36-.3a6.89 6.89 0 1 1 8.6 0zm-5.28-20.13h1.96v3.94h-1.96v-3.94zm-8.76 3.63l2.78 2.78-1.39 1.39-2.78-2.78zm-5.02 10.15h3.94v1.96h-3.94v-1.96zm25.58 0h3.94v1.96h-3.94v-1.96zm.31-8.76l-2.78 2.78-1.39-1.39 2.78-2.78z"/></svg>