<svg xmlns="http://www.w3.org/2000/svg" width="61" height="61" viewBox="0 0 61 61"><defs><style>.cls-1{fill-rule:evenodd;filter:url(#filter)}</style><filter id="filter" x="294" y="1541" width="61" height="61" filterUnits="userSpaceOnUse"><feFlood result="flood" flood-color="#24242a"/><feComposite result="composite" operator="in" in2="SourceGraphic"/><feBlend result="blend" in2="SourceGraphic"/></filter></defs><path id="Forma_1" data-name="Forma 1" class="cls-1" d="M310.975 1562.36l2.251 2.25h-2.539a6.886 6.886 0 0 1-6.871-6.88v-6.89h-1.963v6.89a8.852 8.852 0 0 0 8.834 8.85h2.539l-2.251 2.26 1.388 1.39 4.62-4.63-4.62-4.63zm11.492-6.6a4.909 4.909 0 1 0-4.909 4.92 4.922 4.922 0 0 0 4.909-4.92zm-4.909 2.95a2.95 2.95 0 1 1 2.945-2.95 2.948 2.948 0 0 1-2.945 2.95zm5.89 9.84a4.92 4.92 0 1 0 4.908 4.92 4.922 4.922 0 0 0-4.908-4.92zm0 7.87a2.95 2.95 0 1 1 2.945-2.95 2.956 2.956 0 0 1-2.945 2.95zm2.657-16.03l3.233-3.24 3.232 3.24 1.388-1.39-3.232-3.24 3.232-3.24-1.388-1.39-3.232 3.24-3.233-3.24-1.388 1.39 3.233 3.24-3.233 3.24zm-18.075 8.45l-3.232 3.24-3.233-3.24-1.388 1.39 3.233 3.24-3.233 3.24 1.388 1.39 3.233-3.24 3.232 3.24 1.388-1.39-3.232-3.24 3.232-3.24zm15.279 33.16H355l-1.458-10.96a8.894 8.894 0 0 0-6.031-7.25l-3.331-1.08a8.846 8.846 0 0 0 3.808-7.27v-1.97a8.854 8.854 0 0 0-8.834-8.86 9.058 9.058 0 0 0-1.963.23v-15.97h1.963V1541H294v7.87h1.963v31.48H294v7.88h31.654a8.714 8.714 0 0 0-.885 2.79zm23.7-16.3a6.936 6.936 0 0 1 4.588 5.6l1.161 8.73h-3.786v-3.7a10.409 10.409 0 0 0-1.085-4.61 8.4 8.4 0 0 1-.878-3.73v-2.29zm-1.965-.64v2.93a10.378 10.378 0 0 0 1.085 4.61 8.4 8.4 0 0 1 .879 3.73v3.7H331.3v-3.7a8.383 8.383 0 0 1 .879-3.73 10.377 10.377 0 0 0 1.084-4.61v-2.97l.982-.33v1.57a4.908 4.908 0 1 0 9.816 0v-1.52zm-8.834 1.2v-2.49a8.6 8.6 0 0 0 5.89 0v2.49a2.945 2.945 0 1 1-5.891 0zm2.945-19.68a6.888 6.888 0 0 1 6.871 6.89v1.97a6.871 6.871 0 1 1-13.742 0v-1.97a6.888 6.888 0 0 1 6.87-6.89zm-43.191 19.68v-3.94h31.411v-1.97h-29.449v-31.48h1.963v-1.97h-3.926v-3.93h41.228v3.93h-35.338v1.97h33.374v16.68a8.855 8.855 0 0 0-4.908 7.92v1.97a8.792 8.792 0 0 0 1.494 4.91h-2.475v1.97h4.275c.153.13.311.24.471.36l-3.329 1.1a8.719 8.719 0 0 0-3.755 2.48h-31.037zm30.753 5.02a6.911 6.911 0 0 1 4.585-5.6v2.31a8.383 8.383 0 0 1-.879 3.73 10.408 10.408 0 0 0-1.084 4.61v3.7h-3.786z" transform="translate(-294 -1541)"/></svg>