<svg xmlns="http://www.w3.org/2000/svg" width="65" height="65" viewBox="0 0 65 65"><defs><style>.cls-1{fill-rule:evenodd;filter:url(#filter)}</style><filter id="filter" x="526" y="1316" width="65" height="65" filterUnits="userSpaceOnUse"><feFlood result="flood" flood-color="#24242a"/><feComposite result="composite" operator="in" in2="SourceGraphic"/><feBlend result="blend" in2="SourceGraphic"/></filter></defs><path class="cls-1" d="M62.605 4.11H39v-.35A3.768 3.768 0 0 0 35.237 0h-5.474A3.768 3.768 0 0 0 26 3.76v.35H2.4A2.394 2.394 0 0 0 0 6.5v6.84a1.027 1.027 0 1 0 2.053 0V6.5a.34.34 0 0 1 .342-.34h28.736a1.025 1.025 0 1 0 0-2.05h-3.079v-.35a1.715 1.715 0 0 1 1.711-1.71h5.474a1.714 1.714 0 0 1 1.71 1.71v.35h-1.71a1.025 1.025 0 1 0 0 2.05h27.368a.34.34 0 0 1 .342.34v30.1a1.027 1.027 0 1 0 2.053 0V6.5a2.394 2.394 0 0 0-2.395-2.39zm1.369 35.57a1.028 1.028 0 0 0-1.027 1.03v6.84a.34.34 0 0 1-.342.34H2.4a.34.34 0 0 1-.342-.34v-30.1a1.027 1.027 0 1 0-2.053 0v30.1a2.4 2.4 0 0 0 2.395 2.4h15.394v13h-4.447a1.025 1.025 0 1 0 0 2.05h38.316a1.025 1.025 0 1 0 0-2.05H47.21v-13h15.395A2.4 2.4 0 0 0 65 47.55v-6.84a1.027 1.027 0 0 0-1.026-1.03zM45.158 53.37H22.921a1.025 1.025 0 1 0 0 2.05h22.237v7.53H19.842v-13h25.316v3.42zM7.249 24.06a2.2 2.2 0 0 0-1.776 2.16v1.61A2.222 2.222 0 0 0 7.249 30l2.351.47a10.169 10.169 0 0 0 .467 1.12l-1.33 2a2.221 2.221 0 0 0 .276 2.79l1.137 1.13a2.219 2.219 0 0 0 2.786.28l2-1.33a11.378 11.378 0 0 0 1.129.47l.471 2.35a2.207 2.207 0 0 0 2.165 1.77H20.3a2.207 2.207 0 0 0 2.165-1.77l.471-2.35a11.378 11.378 0 0 0 1.129-.47l2 1.33a2.219 2.219 0 0 0 2.786-.28l1.137-1.13a2.223 2.223 0 0 0 .276-2.79l-1.331-2a9.985 9.985 0 0 0 .468-1.12l2.351-.47a2.222 2.222 0 0 0 1.776-2.17v-1.61a2.2 2.2 0 0 0-1.776-2.16l-2.351-.47a9.57 9.57 0 0 0-.467-1.13l1.33-2a2.2 2.2 0 0 0-.276-2.78l-1.137-1.14a2.219 2.219 0 0 0-2.786-.28l-2 1.33a11.31 11.31 0 0 0-1.129-.46l-.471-2.35A2.216 2.216 0 0 0 20.3 13h-1.6a2.216 2.216 0 0 0-2.165 1.78l-.471 2.35a11.31 11.31 0 0 0-1.129.46l-2-1.33a2.219 2.219 0 0 0-2.786.28l-1.137 1.14a2.207 2.207 0 0 0-.276 2.78l1.331 2a9.575 9.575 0 0 0-.468 1.13zm3.349 1.42a1.036 1.036 0 0 0 .787-.73 8.209 8.209 0 0 1 .768-1.85 1.037 1.037 0 0 0-.041-1.08l-1.667-2.5a.146.146 0 0 1 .02-.19l1.137-1.14a.16.16 0 0 1 .2-.02l2.5 1.67a1.037 1.037 0 0 0 1.074.04 8.261 8.261 0 0 1 1.853-.77 1.023 1.023 0 0 0 .729-.79l.59-2.94a.162.162 0 0 1 .152-.13h1.6a.162.162 0 0 1 .152.13l.59 2.94a1.023 1.023 0 0 0 .729.79 8.261 8.261 0 0 1 1.853.77 1.035 1.035 0 0 0 1.073-.04l2.5-1.67a.16.16 0 0 1 .2.02l1.137 1.14a.149.149 0 0 1 .02.19l-1.668 2.5a1.039 1.039 0 0 0-.04 1.08 8.209 8.209 0 0 1 .768 1.85 1.036 1.036 0 0 0 .787.73l2.947.59a.153.153 0 0 1 .125.15v1.61a.153.153 0 0 1-.125.15l-2.947.59a1.036 1.036 0 0 0-.787.73 8.209 8.209 0 0 1-.768 1.85 1.038 1.038 0 0 0 .04 1.08l1.668 2.5a.148.148 0 0 1-.02.19l-1.137 1.14a.16.16 0 0 1-.2.02l-2.5-1.67a1.035 1.035 0 0 0-1.073-.04 8.261 8.261 0 0 1-1.853.77 1.037 1.037 0 0 0-.729.79l-.59 2.95a.153.153 0 0 1-.152.12h-1.6a.152.152 0 0 1-.152-.13l-.59-2.94a1.038 1.038 0 0 0-.729-.79 8.261 8.261 0 0 1-1.853-.77 1.124 1.124 0 0 0-.5-.13 1.064 1.064 0 0 0-.57.17l-2.5 1.67a.16.16 0 0 1-.2-.02l-1.137-1.14a.146.146 0 0 1-.02-.19l1.667-2.5a1.036 1.036 0 0 0 .041-1.08 8.209 8.209 0 0 1-.768-1.85 1.036 1.036 0 0 0-.787-.73l-2.947-.59a.153.153 0 0 1-.125-.15v-1.61a.153.153 0 0 1 .125-.15zm8.9 6.47a4.925 4.925 0 1 0-4.926-4.92 4.931 4.931 0 0 0 4.928 4.92zm0-7.8a2.875 2.875 0 1 1-2.874 2.88 2.879 2.879 0 0 1 2.876-2.88zM39.34 9.58a1.027 1.027 0 0 0-1.026 1.03v32.84a1.026 1.026 0 0 0 2.052 0v-3.08h16.763a2.4 2.4 0 0 0 2.395-2.4v-2.73a2.4 2.4 0 0 0-2.395-2.4h-4.105a1.025 1.025 0 1 0 0 2.05h4.105a.349.349 0 0 1 .343.35v2.73a.349.349 0 0 1-.343.35H40.368v-3.43h8.553a1.025 1.025 0 1 0 0-2.05h-8.553v-2.05h9.921a2.4 2.4 0 0 0 2.395-2.4v-2.73a2.4 2.4 0 0 0-2.395-2.4h-2.737a1.03 1.03 0 0 0 0 2.06h2.737a.34.34 0 0 1 .343.34v2.73a.349.349 0 0 1-.343.35h-9.921v-3.42h3.079a1.03 1.03 0 0 0 0-2.06h-3.079v-2.05h4.448a2.393 2.393 0 0 0 2.394-2.39v-2.74a2.4 2.4 0 0 0-2.394-2.4h-4.448v-3.07a1.027 1.027 0 0 0-1.026-1.03zm5.474 6.16a.34.34 0 0 1 .342.34v2.74a.347.347 0 0 1-.342.34h-4.448v-3.42h4.448z"/></svg>