<svg width="78" height="43" fill="none" xmlns="http://www.w3.org/2000/svg"><path d="M59.78-6.683c-9.86 0-17.643 7.993-17.643 17.851 0 9.859 8.096 17.852 17.955 17.852.099 0 .247-.014.346-.015-3.898 3.104-8.794 4.974-14.153 4.974-2.465 0-4.45 1.999-4.45 4.463s1.587 4.463 4.053 4.463c17.498-.002 31.325-14.238 31.325-31.737v-.011c0-9.854-7.579-17.84-17.434-17.84zm-41.812 0C8.11-6.683.313 1.31.313 11.168c0 9.859 8.09 17.852 17.95 17.852.098 0 .244-.014.342-.015-3.898 3.104-8.795 4.974-14.154 4.974C1.986 33.979 0 35.978 0 38.442s1.611 4.463 4.077 4.463c17.498-.002 31.35-14.238 31.35-31.737v-.011c0-9.854-7.604-17.84-17.459-17.84z" opacity=".05" fill="#343E4D"/></svg>