<svg width="8" height="8" fill="none" xmlns="http://www.w3.org/2000/svg"><g clip-path="url(#clip0)"><path d="M7.65.52c-.36-.194-.763.181-1 .403-.54.528-.999 1.139-1.512 1.694-.57.611-1.097 1.222-1.68 1.82-.334.332-.695.693-.917 1.11-.5-.486-.93-1.014-1.486-1.444C.653 3.797-.014 3.575 0 4.31c.028.958.875 1.986 1.5 2.638.264.278.61.57 1.013.583.486.028.986-.555 1.278-.874.513-.556.93-1.18 1.402-1.75.611-.75 1.236-1.485 1.833-2.25C7.4 2.188 8.58 1.022 7.65.522zM.612 4.257c-.014 0-.028 0-.055.014a.676.676 0 01-.153-.056c.041-.028.11-.014.208.042z" fill="#fff"/></g><defs><clipPath id="clip0"><path fill="#fff" d="M0 0h8v8H0z"/></clipPath></defs></svg>