<svg width="19" height="19" fill="none" xmlns="http://www.w3.org/2000/svg"><g clip-path="url(#clip0)" fill="#FF4949"><path d="M17.736 9.746a.556.556 0 010-.492l.71-1.45a1.65 1.65 0 00-.713-2.19l-1.425-.756a.557.557 0 01-.29-.398l-.278-1.59a1.65 1.65 0 00-1.863-1.354l-1.598.226a.557.557 0 01-.468-.152L10.651.468a1.65 1.65 0 00-2.303 0L7.188 1.59a.557.557 0 01-.467.153l-1.598-.226A1.65 1.65 0 003.26 2.87l-.28 1.59a.557.557 0 01-.29.398l-1.425.756a1.65 1.65 0 00-.711 2.19l.708 1.45a.557.557 0 010 .492l-.708 1.45a1.65 1.65 0 00.711 2.19l1.426.756a.56.56 0 01.289.399l.279 1.589a1.648 1.648 0 001.863 1.354l1.598-.227a.557.557 0 01.468.153l1.16 1.122a1.65 1.65 0 002.302 0l1.16-1.122a.557.557 0 01.468-.152l1.598.226a1.65 1.65 0 001.863-1.354l.279-1.59a.557.557 0 01.29-.398l1.424-.756a1.65 1.65 0 00.712-2.19l-.709-1.45zM7.308 4.57c1.108 0 2.01.901 2.01 2.009a2.012 2.012 0 01-2.01 2.009A2.011 2.011 0 015.3 6.577c0-1.107.9-2.007 2.01-2.007zm-1.037 8.934a.546.546 0 01-.775 0 .548.548 0 010-.774l7.232-7.233a.548.548 0 01.775.775l-7.232 7.233zm5.42.928a2.011 2.011 0 01-2.009-2.009c0-1.107.902-2.009 2.01-2.009 1.107 0 2.009.902 2.009 2.01a2.011 2.011 0 01-2.01 2.008z"/><path d="M11.691 11.51a.914.914 0 000 1.825.914.914 0 000-1.826zM7.308 5.665a.914.914 0 000 1.826.914.914 0 000-1.826z"/></g><defs><clipPath id="clip0"><path fill="#fff" d="M0 0h19v19H0z"/></clipPath></defs></svg>