<svg width="18" height="18" fill="none" xmlns="http://www.w3.org/2000/svg"><g opacity=".3" clip-path="url(#clip0)" fill="#343E4D"><path d="M14.25 1.5h-.75V.75a.75.75 0 10-1.5 0v.75H6V.75a.75.75 0 00-1.5 0v.75h-.75A3.755 3.755 0 000 5.25v9A3.754 3.754 0 003.75 18h10.5A3.754 3.754 0 0018 14.25v-9a3.755 3.755 0 00-3.75-3.75zM1.5 5.25A2.25 2.25 0 013.75 3h10.5a2.25 2.25 0 012.25 2.25V6h-15v-.75zM14.25 16.5H3.75a2.25 2.25 0 01-2.25-2.25V7.5h15v6.75a2.25 2.25 0 01-2.25 2.25z"/><path d="M9 12.375a1.125 1.125 0 100-2.25 1.125 1.125 0 000 2.25zm-3.75 0a1.125 1.125 0 100-2.25 1.125 1.125 0 000 2.25zm7.5 0a1.125 1.125 0 100-2.25 1.125 1.125 0 000 2.25z"/></g><defs><clipPath id="clip0"><path fill="#fff" d="M0 0h18v18H0z"/></clipPath></defs></svg>