<svg width="100" height="91" fill="none" xmlns="http://www.w3.org/2000/svg"><path d="M97.39 46.778l-9.79-9.783c-2.666-2.666-6.636-3.253-9.877-1.764l-4.981-4.978C85.495 14.13 73.983-9.805 53.315-9.805c-17.205 0-29.139 17.174-23.254 33.23a8.223 8.223 0 01-3.225-1.085C11.731 13.402-5.389 30.144 1.617 46.82c2.035 4.846 2.94 10.032 2.62 14.998-.766 11.897 4.859 22.495 13.357 27.905.923.587 1.342.458 5.354.458a2.93 2.93 0 002.93-2.929V70.837c0-2.742 2.23-5.017 4.971-5.073 2.881-.054 5.184 2.349 5.184 5.206v16.282a2.93 2.93 0 002.93 2.929c4.483 0 4.923.146 5.88-.497 8.415-5.643 13.458-16.47 12.847-27.585-.29-5.181.63-10.4 2.658-15.092 1.245-2.884 1.803-5.908 1.668-8.907a24.787 24.787 0 006.578-3.71l4.929 4.927A8.763 8.763 0 0075.191 49.4l9.875 9.87a8.777 8.777 0 0012.58-.175c3.236-3.416 3.121-8.942-.256-12.317zM53.315-3.946c10.419 0 18.894 8.47 18.894 18.884 0 7.742-4.687 14.41-11.375 17.32-3.668-9.922-14.813-15.823-25.038-10.251C30.773 9.619 39.964-3.946 53.315-3.946zm1.814 37.678c-6.349.608-12.37-1.99-16.31-6.697 6.828-3.547 13.71.558 16.31 6.698zm-.16 10.953c-2.388 5.522-3.47 11.656-3.13 17.739.482 8.767-3.247 17.256-9.554 21.899h-.392V70.97c0-6.078-4.95-11.19-11.161-11.063-5.909.119-10.715 4.931-10.715 10.931v13.46c-6.627-4.63-10.505-13.2-9.932-22.103.378-5.865-.681-11.965-3.064-17.643-4.822-11.473 6.578-23.235 16.832-17.169a14.087 14.087 0 009.237 1.805c5.137 7.261 13.867 11.394 23.095 10.324-.068 1.638-.44 3.373-1.217 5.172zM93.39 55.066a2.917 2.917 0 01-4.182.06l-9.875-9.87a2.909 2.909 0 010-4.119 2.92 2.92 0 014.124 0l9.79 9.784c1.152 1.152 1.217 3.01.143 4.145z" fill="url(#paint0_linear)"/><defs><linearGradient id="paint0_linear" x1="100" y1="90.195" x2="-14.446" y2="69.294" gradientUnits="userSpaceOnUse"><stop stop-color="#769DD4"/><stop offset="1" stop-color="#A1D4F0"/></linearGradient></defs></svg>