<svg width="94" height="90" fill="none" xmlns="http://www.w3.org/2000/svg"><path d="M37.5 29.54l-11.718 2.93a2.928 2.928 0 00-2.132 3.553 2.928 2.928 0 003.553 2.131l11.718-2.93a2.929 2.929 0 10-1.42-5.683z" fill="url(#paint0_linear)"/><path d="M66.797 29.54L55.08 32.47a2.928 2.928 0 101.42 5.684l11.72-2.93a2.929 2.929 0 10-1.421-5.683z" fill="url(#paint1_linear)"/><path d="M55.79 54.844c-8.078 0-14.65 6.57-14.65 14.648a2.93 2.93 0 105.86 0c0-4.846 3.943-8.789 8.79-8.789a2.93 2.93 0 100-5.86z" fill="url(#paint2_linear)"/><path d="M82.156 25.547V8.555C82.156-1.676 73.833-10 63.602-10H3.055a2.93 2.93 0 00-2.93 2.93V3.086c0 7.455 4.94 13.777 11.719 15.868l-.002 6.593C5.381 25.547.125 30.804.125 37.266c0 6.457 5.25 11.712 11.707 11.718.006 5.48.032 7.502.115 8.721-8.97 6.628-7.717 20.824 3.068 25.292 3.548 1.47 7.469 1.583 11.085.115A35.22 35.22 0 0047 90c19.385 0 35.156-15.77 35.156-35.156v-5.86c6.462 0 11.719-5.256 11.719-11.718s-5.257-11.72-11.719-11.72zM5.984 3.086v-7.227h57.618c7 0 12.695 5.696 12.695 12.696v5.273h-59.57c-5.924 0-10.743-4.819-10.743-10.742zm0 34.18a5.866 5.866 0 015.855-5.86l-.008 11.718a5.865 5.865 0 01-5.847-5.858zm25.267 42.281a2.927 2.927 0 00-4.403-3.84c-5.493 5.492-15.004 1.614-15.004-6.215 0-4.846 3.943-8.789 8.789-8.789a2.93 2.93 0 100-5.86c-.997 0-1.97.101-2.91.292-.056-3.695-.023-12.637-.02-35.447h58.594v35.156c0 23.054-25.566 37.11-45.046 24.703zm50.905-36.422V31.406a5.866 5.866 0 015.86 5.86 5.866 5.866 0 01-5.86 5.859z" fill="url(#paint3_linear)"/><path d="M44.07 48.984h5.86a2.93 2.93 0 100-5.859h-5.86a2.93 2.93 0 100 5.86z" fill="url(#paint4_linear)"/><defs><linearGradient id="paint0_linear" x1="93.875" y1="90" x2="-13.839" y2="71.558" gradientUnits="userSpaceOnUse"><stop stop-color="#769DD4"/><stop offset="1" stop-color="#A1D4F0"/></linearGradient><linearGradient id="paint1_linear" x1="93.875" y1="90" x2="-13.839" y2="71.558" gradientUnits="userSpaceOnUse"><stop stop-color="#769DD4"/><stop offset="1" stop-color="#A1D4F0"/></linearGradient><linearGradient id="paint2_linear" x1="93.875" y1="90" x2="-13.839" y2="71.558" gradientUnits="userSpaceOnUse"><stop stop-color="#769DD4"/><stop offset="1" stop-color="#A1D4F0"/></linearGradient><linearGradient id="paint3_linear" x1="93.875" y1="90" x2="-13.839" y2="71.558" gradientUnits="userSpaceOnUse"><stop stop-color="#769DD4"/><stop offset="1" stop-color="#A1D4F0"/></linearGradient><linearGradient id="paint4_linear" x1="93.875" y1="90" x2="-13.839" y2="71.558" gradientUnits="userSpaceOnUse"><stop stop-color="#769DD4"/><stop offset="1" stop-color="#A1D4F0"/></linearGradient></defs></svg>