<svg width="100" height="90" fill="none" xmlns="http://www.w3.org/2000/svg"><path d="M100 55.508c0-10.174-8.115-12.46-17.903-12.46-5.764 0-11.616.599-15.08 4.38-4.48-4.379-12.712-4.38-16.94-4.38-4.254 0-12.558.002-17.02 4.458-3.558-3.967-9.716-4.457-15.15-4.457-9.796 0-17.903 2.273-17.903 12.46v23.749C.005 85.18 4.825 90 10.747 90H89.26C95.18 90 100 85.181 100 79.258v-23.75zm-17.903-6.6c10.124 0 12.044 2.32 12.044 6.6 0 6.924-5.828 17.19-12.044 17.19-4.347 0-11.408-6.306-12.017-18.01.261-3.756 2.559-5.78 12.017-5.78zm-32.02 0c11.092 0 13.832 2.121 14.136 5.821-.51 10.913-8.403 17.968-14.137 17.968-7.683 0-14.168-10.558-14.168-17.189 0-4.18 2.32-6.6 14.168-6.6zm-32.17 0c10.125 0 12.044 2.32 12.044 6.6 0 6.924-5.828 17.19-12.044 17.19S5.863 62.435 5.863 55.507c0-4.28 1.92-6.6 12.044-6.6zm76.234 30.35a4.888 4.888 0 01-4.883 4.883H10.746a4.888 4.888 0 01-4.883-4.883v-7.646c8.929 11.6 21.052 7.83 27.226-5.159 8.613 16 25.154 16.16 33.895.145 6.215 12.9 18.277 16.552 27.157 5.013v7.647z" fill="url(#paint0_linear)"/><path d="M17.906 36.951c5.697 0 11.599-.579 15.08-4.378 4.48 4.377 12.712 4.378 16.94 4.378 4.255 0 12.558-.001 17.02-4.456 3.559 3.966 9.716 4.456 15.15 4.456 9.797 0 17.903-2.273 17.903-12.46V.743C100-5.18 95.18-10 89.257-10H10.745C4.822-10 .003-5.181.003.742c0 23.45-.028 21.849.061 22.276C-.81 34.09 7.228 36.95 17.906 36.95zm0-5.86c-10.124 0-12.044-2.318-12.044-6.6 0-6.918 5.825-17.188 12.044-17.188 4.292 0 11.402 6.173 12.017 18.007-.26 3.757-2.557 5.782-12.017 5.782zm32.02 0c-11.094 0-13.833-2.12-14.137-5.822.511-10.927 8.417-17.966 14.138-17.966 7.684 0 14.167 10.558 14.167 17.189 0 4.18-2.318 6.6-14.167 6.6zm32.17 0c-10.125 0-12.044-2.318-12.044-6.6 0-6.923 5.827-17.188 12.044-17.188 6.222 0 12.044 10.27 12.044 17.189 0 4.28-1.92 6.6-12.044 6.6zM5.862.743a4.888 4.888 0 014.883-4.883h78.512A4.888 4.888 0 0194.14.742v7.646c-8.928-11.6-21.052-7.83-27.227 5.159C58.25-2.548 41.709-2.52 33.02 13.402 26.804.503 14.743-3.15 5.862 8.39V.742z" fill="url(#paint1_linear)"/><defs><linearGradient id="paint0_linear" x1="100" y1="90" x2="-14.447" y2="69.099" gradientUnits="userSpaceOnUse"><stop stop-color="#769DD4"/><stop offset="1" stop-color="#A1D4F0"/></linearGradient><linearGradient id="paint1_linear" x1="100" y1="90" x2="-14.447" y2="69.099" gradientUnits="userSpaceOnUse"><stop stop-color="#769DD4"/><stop offset="1" stop-color="#A1D4F0"/></linearGradient></defs></svg>