<svg width="78" height="89" fill="none" xmlns="http://www.w3.org/2000/svg"><path d="M44.59-7.919c-3.513 2.08-7.708 2.08-11.222 0C14.66-18.99-6.562 1.785 2.147 22.517 4.812 28.87 5.999 35.67 5.579 42.184 4.576 57.748 10.731 72.668 25.865 77.02v9.05a2.93 2.93 0 002.93 2.93h20.588a2.93 2.93 0 002.93-2.93v-9.114C67.24 72.535 73.382 57.74 72.379 42.184c-.42-6.514.768-13.314 3.432-19.666 8.693-20.695-12.494-41.52-31.22-30.437zm-12.865 91.06V64.832l14.729-4.168v22.478h-14.73zm14.729-34.39v5.824l-14.73 4.168V52.92l14.73-4.167zm-14.73-1.92v-3.06c0-3.98 3.236-7.283 7.213-7.363 3.739-.084 6.833 2.73 7.414 6.285L31.725 46.83zM70.41 20.25c-3.014 7.183-4.354 14.897-3.877 22.309.715 11.099-2.762 23.782-14.22 28.21V59.005l2.238-.634a2.928 2.928 0 10-1.596-5.636l-.642.181v-5.824l2.238-.632a2.929 2.929 0 10-1.596-5.638l-.953.27C50.66 34.946 45.245 30.42 38.82 30.551c-7.145.144-12.954 5.965-12.954 13.22v4.718l-1.861.527a2.93 2.93 0 00.796 5.748c.46 0 .756-.099 1.065-.187v5.825l-1.861.526c-3.634 1.029-2.349 6.754 1.861 5.562v4.363c-11.63-4.35-15.16-17.11-14.438-28.293.477-7.412-.863-15.126-3.878-22.31C1.057 4.793 16.464-11.115 30.383-2.876a16.879 16.879 0 0017.192 0c13.94-8.252 29.313 7.702 22.834 23.127z" fill="url(#paint0_linear)"/><defs><linearGradient id="paint0_linear" x1="77.821" y1="89" x2="-12.242" y2="76.221" gradientUnits="userSpaceOnUse"><stop stop-color="#769DD4"/><stop offset="1" stop-color="#A1D4F0"/></linearGradient></defs></svg>