<svg width="180" height="20" fill="none" xmlns="http://www.w3.org/2000/svg"><path d="M173.251.49h-12.638c.736 4.172 4.785 8.099 9.203 8.099h10.061c.123-.368.123-.982.123-1.35 0-3.68-3.068-6.749-6.749-6.749z" fill="url(#paint0_linear)"/><path d="M161.717 9.325V19.51h6.135v-5.4h5.399c2.945 0 5.522-2.085 6.381-4.785h-17.915zM140.122.49v18.897h5.399s1.349 0 2.086-1.35c3.681-7.24 4.785-9.448 4.785-9.448h.736v10.798h6.135V.49h-5.399s-1.349.123-2.086 1.35c-3.067 6.258-4.785 9.448-4.785 9.448h-.736V.49h-6.135zm-25.768 19.02V.613h6.135s1.718 0 2.699 2.7c2.454 7.116 2.7 8.098 2.7 8.098s.49-1.718 2.699-8.098c.982-2.7 2.7-2.7 2.7-2.7h6.135V19.51h-6.135V9.325h-.737l-3.435 10.184h-2.7L120.98 9.325h-.737V19.51h-5.889z" fill="#4FAD50"/><path d="M98.736.757h-3.823c-1.156 0-2.045.356-2.58 1.512l-7.29 16.628H90.2s.89-2.223 1.067-2.757h6.313c.178.623.623 2.668.623 2.668h4.624L98.737.758zM92.69 12.406c.444-1.067 1.956-5.069 1.956-5.069 0 .09.445-1.067.622-1.69l.356 1.601s.978 4.357 1.156 5.247h-4.09v-.09zm-7.292.534c0 3.734-3.379 6.224-8.625 6.224-2.223 0-4.357-.445-5.513-.978l.711-4.09.623.266c1.6.711 2.667.978 4.623.978 1.423 0 2.935-.533 2.935-1.778 0-.8-.623-1.334-2.579-2.223-1.867-.89-4.357-2.312-4.357-4.89 0-3.558 3.468-5.959 8.359-5.959 1.867 0 3.467.356 4.445.8l-.71 3.913-.356-.355c-.89-.356-2.046-.712-3.735-.712-1.867.09-2.757.89-2.757 1.6 0 .801 1.067 1.424 2.757 2.224 2.845 1.334 4.18 2.845 4.18 4.98z" fill="#3362AB"/><path d="M42.005.935l.09-.356h7.646c1.068 0 1.868.356 2.135 1.512l1.689 8.003c-1.69-4.268-5.602-7.736-11.56-9.159z" fill="#F9B50B"/><path d="M64.324.757l-7.736 18.051h-5.246L46.896 3.692c3.201 2.045 5.869 5.246 6.847 7.469l.533 1.867L59.078.668h5.246v.09zM66.37.668h4.89l-3.112 18.14h-4.89l3.11-18.14z" fill="#3362AB"/><path d="M18.673 9.827c0 5.123-4.165 9.337-9.336 9.337C4.213 19.164 0 14.95 0 9.827 0 4.704 4.166.49 9.289.49c5.219 0 9.384 4.214 9.384 9.337z" fill="#C8191C"/><path d="M30.478 9.827c0 5.123-4.165 9.337-9.336 9.337-5.123 0-9.337-4.214-9.337-9.337 0-5.123 4.166-9.337 9.289-9.337 5.219 0 9.384 4.214 9.384 9.337z" fill="#F9B50B"/><path opacity=".5" d="M18.673 9.827c0 5.123-4.165 9.337-9.336 9.337C4.213 19.164 0 14.95 0 9.827 0 4.704 4.166.49 9.289.49c5.219 0 9.384 4.214 9.384 9.337z" fill="#C8191C"/><defs><linearGradient id="paint0_linear" x1="160.591" y1="4.598" x2="179.957" y2="4.598" gradientUnits="userSpaceOnUse"><stop stop-color="#27B1E6"/><stop offset="1" stop-color="#148ACA"/></linearGradient></defs></svg>