<svg width="24" height="24" fill="none" xmlns="http://www.w3.org/2000/svg"><path d="M17.48 2.498c-3.63-.664-7.4-.664-11.03 0-1.605.333-3.63 2.194-3.979 3.656a20.037 20.037 0 000 8.64c.419 1.462 2.443 3.322 3.98 3.655.07 0 .139.066.139.132v4.188c0 .199.28.332.419.132l2.094-2.06s1.675-1.661 1.955-1.927c0 0 .07-.067.14-.067 2.093.067 4.258-.133 6.352-.465 1.605-.332 3.63-2.193 3.979-3.655a20.036 20.036 0 000-8.64c-.42-1.395-2.444-3.256-4.05-3.589zm.07 12.495c-.35.664-.768 1.196-1.466 1.528l-.628.2a9.125 9.125 0 01-.699-.2c-2.233-.864-4.328-2.06-6.003-3.788A15.947 15.947 0 016.45 9.41c-.279-.598-.558-1.13-.768-1.728-.21-.531.14-1.063.489-1.462.35-.399.768-.664 1.257-.864.349-.2.698-.066.977.2.558.664 1.117 1.329 1.536 2.06.279.465.21.997-.28 1.329-.14.066-.209.133-.349.266-.07.066-.209.133-.279.266-.14.199-.14.398-.07.598.559 1.528 1.606 2.725 3.212 3.39.279.132.488.199.837.199.489-.067.698-.599 1.047-.864.35-.266.768-.266 1.187-.067.35.2.698.465 1.117.731.349.266.698.465 1.047.731.21.133.28.466.14.798zm-2.932-4.985c-.14 0-.07 0 0 0-.28 0-.35-.133-.419-.332 0-.133 0-.332-.07-.465a1.258 1.258 0 00-.489-.731l-.418-.2c-.21-.066-.35-.066-.559-.066-.21-.067-.28-.2-.28-.399 0-.133.21-.266.35-.266 1.117.067 1.955.665 2.094 1.928v.265c0 .133-.07.266-.21.266zm-.698-2.924c-.35-.133-.698-.266-1.117-.332-.14 0-.35-.067-.489-.067-.21 0-.349-.133-.28-.332 0-.2.14-.332.35-.266.698.067 1.326.2 1.955.465 1.256.599 1.954 1.595 2.164 2.925v.863c-.07.265-.559.332-.629 0 0-.067-.07-.2-.07-.266a3.74 3.74 0 00-.418-1.728 3.697 3.697 0 00-1.466-1.263zm3.77 3.988c-.21 0-.35-.2-.35-.4 0-.398-.07-.797-.14-1.195-.278-2.127-2.093-3.855-4.258-4.187-.349-.067-.698-.067-.977-.133-.21 0-.489 0-.558-.266-.07-.2.14-.399.349-.399h.14c2.861.067.139 0 0 0 2.931.067 5.374 1.928 5.863 4.719.07.465.14.93.14 1.462.14.2 0 .399-.21.399z" fill="#fff"/></svg>