<svg width="24" height="24" fill="none" xmlns="http://www.w3.org/2000/svg"><path d="M17.58 4H5.42C4.045 4 3 5.046 3 6.42v12.16C3 19.955 4.046 21 5.42 21h12.16c1.374 0 2.42-1.046 2.42-2.42V6.42C20 5.045 18.954 4 17.58 4zM11.5 17.6c2.812 0 5.1-2.223 5.1-4.904 0-.457-.065-.98-.196-1.373h1.438v6.93a.655.655 0 01-.653.655H5.812a.655.655 0 01-.654-.654v-6.996h1.504a4.964 4.964 0 00-.197 1.373C6.4 15.377 8.688 17.6 11.5 17.6zm0-1.962c-1.83 0-3.27-1.438-3.27-3.203 0-1.766 1.44-3.204 3.27-3.204s3.27 1.438 3.27 3.204c0 1.83-1.44 3.204-3.27 3.204zm6.277-6.996c0 .393-.327.72-.72.72h-1.83a.726.726 0 01-.72-.72V6.877c0-.392.328-.72.72-.72h1.83c.393 0 .72.328.72.72v1.765z" fill="#6BA6FA"/></svg>