<svg width="24" height="24" fill="none" xmlns="http://www.w3.org/2000/svg"><path d="M15.073 2.228H8.937C3.333 2.228 2 3.53 2 8.997v5.996c0 5.476 1.323 6.78 6.927 6.78h6.136c5.603 0 6.937-1.294 6.937-6.77V9.007c0-5.477-1.323-6.78-6.927-6.78zm3.073 13.945h-1.459c-.552 0-.718-.437-1.708-1.404-.864-.815-1.229-.916-1.448-.916-.302 0-.385.08-.385.488v1.283c0 .346-.115.55-1.042.55a5.787 5.787 0 01-2.545-.78 5.632 5.632 0 01-1.903-1.826 11.253 11.253 0 01-2.302-4.723c0-.214.083-.408.5-.408h1.458c.375 0 .51.163.657.54.708 2.036 1.916 3.807 2.406 3.807.188 0 .27-.081.27-.54v-2.097c-.062-.957-.582-1.038-.582-1.384a.35.35 0 01.12-.237.365.365 0 01.254-.089h2.292c.313 0 .417.152.417.519v2.83c0 .306.135.408.229.408.188 0 .333-.102.677-.438a11.675 11.675 0 001.792-2.912.616.616 0 01.248-.308.64.64 0 01.387-.099h1.459c.437 0 .53.214.437.519a17.698 17.698 0 01-1.958 3.288c-.157.235-.22.357 0 .632.145.214.656.63 1 1.028.5.487.915 1.05 1.229 1.669.125.396-.084.6-.5.6z" fill="#6BA6FA"/></svg>