<svg width="116" height="20" fill="none" xmlns="http://www.w3.org/2000/svg"><g clip-path="url(#clip0)"><path d="M43.948 7.672a1.061 1.061 0 00-.915-.731l-5.773-.524-2.282-5.343a1.063 1.063 0 00-1.955.001L30.74 6.417l-5.773.524a1.063 1.063 0 00-.604 1.86l4.364 3.827-1.287 5.668a1.063 1.063 0 001.58 1.148L34 16.468l4.978 2.976a1.063 1.063 0 001.582-1.148l-1.287-5.668 4.363-3.826c.321-.28.444-.724.312-1.13z" fill="#FFC107"/><path d="M43.948 7.672a1.061 1.061 0 00-.915-.731l-5.773-.524-2.282-5.343a1.063 1.063 0 00-1.955.001L30.74 6.417l-5.773.524a1.063 1.063 0 00-.604 1.86l4.364 3.827-1.287 5.668a1.063 1.063 0 001.58 1.148L34 16.468l4.978 2.976a1.063 1.063 0 001.582-1.148l-1.287-5.668 4.363-3.826c.321-.28.444-.724.312-1.13z" fill="#D3D3D3"/></g><g clip-path="url(#clip1)"><path d="M67.948 7.672a1.061 1.061 0 00-.915-.731l-5.773-.524-2.282-5.343a1.063 1.063 0 00-1.955.001L54.74 6.417l-5.773.524a1.063 1.063 0 00-.604 1.86l4.364 3.827-1.287 5.668a1.063 1.063 0 001.58 1.148L58 16.468l4.978 2.976a1.063 1.063 0 001.582-1.148l-1.287-5.668 4.363-3.826c.321-.28.444-.724.312-1.13z" fill="#FFC107"/><path d="M67.948 7.672a1.061 1.061 0 00-.915-.731l-5.773-.524-2.282-5.343a1.063 1.063 0 00-1.955.001L54.74 6.417l-5.773.524a1.063 1.063 0 00-.604 1.86l4.364 3.827-1.287 5.668a1.063 1.063 0 001.58 1.148L58 16.468l4.978 2.976a1.063 1.063 0 001.582-1.148l-1.287-5.668 4.363-3.826c.321-.28.444-.724.312-1.13z" fill="#D3D3D3"/></g><g clip-path="url(#clip2)"><path d="M91.948 7.672a1.061 1.061 0 00-.915-.731l-5.773-.524-2.282-5.343a1.063 1.063 0 00-1.955.001L78.74 6.417l-5.773.524a1.063 1.063 0 00-.604 1.86l4.364 3.827-1.287 5.668a1.063 1.063 0 001.58 1.148L82 16.468l4.978 2.976a1.063 1.063 0 001.582-1.148l-1.287-5.668 4.363-3.826c.321-.28.444-.724.312-1.13z" fill="#FFC107"/><path d="M91.948 7.672a1.061 1.061 0 00-.915-.731l-5.773-.524-2.282-5.343a1.063 1.063 0 00-1.955.001L78.74 6.417l-5.773.524a1.063 1.063 0 00-.604 1.86l4.364 3.827-1.287 5.668a1.063 1.063 0 001.58 1.148L82 16.468l4.978 2.976a1.063 1.063 0 001.582-1.148l-1.287-5.668 4.363-3.826c.321-.28.444-.724.312-1.13z" fill="#D3D3D3"/></g><path d="M19.948 7.672a1.061 1.061 0 00-.915-.731l-5.773-.524-2.282-5.343a1.063 1.063 0 00-1.955.001L6.74 6.417.967 6.94A1.063 1.063 0 00.363 8.8l4.364 3.827-1.287 5.668a1.063 1.063 0 001.58 1.148L10 16.468l4.978 2.976a1.063 1.063 0 001.582-1.148l-1.287-5.668 4.363-3.826c.321-.28.444-.724.312-1.13z" fill="#D3D3D3"/><g clip-path="url(#clip3)"><path d="M115.948 7.672a1.06 1.06 0 00-.915-.731l-5.773-.524-2.282-5.343a1.065 1.065 0 00-1.955.001l-2.283 5.342-5.773.524a1.063 1.063 0 00-.604 1.86l4.364 3.827-1.287 5.668a1.063 1.063 0 001.581 1.148L106 16.468l4.978 2.976a1.062 1.062 0 001.581-1.148l-1.286-5.668 4.363-3.826c.321-.28.444-.724.312-1.13z" fill="#D3D3D3"/></g><defs><clipPath id="clip0"><path fill="#fff" transform="translate(24)" d="M0 0h20v20H0z"/></clipPath><clipPath id="clip1"><path fill="#fff" transform="translate(48)" d="M0 0h20v20H0z"/></clipPath><clipPath id="clip2"><path fill="#fff" transform="translate(72)" d="M0 0h20v20H0z"/></clipPath><clipPath id="clip3"><path fill="#fff" transform="translate(96)" d="M0 0h20v20H0z"/></clipPath></defs></svg>