<svg width="14" height="14" fill="none" xmlns="http://www.w3.org/2000/svg"><g clip-path="url(#clip0)" fill="#343E4D"><path d="M13.575 5.494c-.904-1.473-2.962-3.945-6.574-3.945-3.612 0-5.67 2.472-6.575 3.945a2.863 2.863 0 000 3.012C1.33 9.979 3.389 12.45 7 12.45s5.67-2.472 6.574-3.945a2.863 2.863 0 000-3.012zm-.994 2.4c-.777 1.264-2.536 3.39-5.58 3.39-3.045 0-4.804-2.126-5.58-3.39a1.702 1.702 0 010-1.789c.776-1.263 2.535-3.39 5.58-3.39 3.044 0 4.803 2.124 5.58 3.39a1.702 1.702 0 010 1.79z"/><path d="M7 4.083a2.917 2.917 0 100 5.834 2.917 2.917 0 000-5.834zM7 8.75a1.75 1.75 0 110-3.5 1.75 1.75 0 010 3.5z"/></g><defs><clipPath id="clip0"><path fill="#fff" d="M0 0h14v14H0z"/></clipPath></defs></svg>